<svg height="512" viewBox="0 0 60 61" width="512" xmlns="http://www.w3.org/2000/svg"><g id="Page-1" fill="none" fill-rule="evenodd"><g id="001---Meat-Stall" fill-rule="nonzero"><ellipse id="Oval" cx="19" cy="11" fill="#ef314c" rx="6" ry="9"/><path id="Shape" d="m40 16v1c0 1.6568542-1.3431458 3-3 3h-18c3.31 0 6-4 6-9s-2.69-9-6-9c0 0 10.58-1 20.42 12.2.3823367.5217785.5857822 1.153161.58 1.8z" fill="#91562d"/><path id="Shape" d="m47.49 18c.3314363.4297172.5108198.9573157.51 1.5.1380711 1.3807118-.8692882 2.6119287-2.25 2.7499999s-2.6119288-.8692881-2.75-2.2499999h-6c1.6568542 0 3-1.3431458 3-3v-1h3c-.0152946-.1663158-.0152946-.3336842 0-.5 0-1.1756511.8191432-2.1924589 1.9678518-2.4427072 1.1487086-.2502482 2.3165763.3336856 2.8056028 1.4028014.4890266 1.0691159.1670663 2.3345151-.7734546 3.0399058.1900357.1382189.355648.3072111.49.5z" fill="#f5f5f5"/><path id="Shape" d="m47 17.5c.8608608-.6456456 1.2119934-1.7697141.8717082-2.7905694-.3402851-1.0208554-1.2956322-1.7094306-2.3717082-1.7094306-.5426843-.0008198-1.0702828.1785637-1.5.51.6332982.4696772 1.0067266 1.2115438 1.0067266 2s-.3734284 1.5303228-1.0067266 2c.1900357.1382189.355648.3072111.49.5.3293466.4270047.508612.950741.51 1.49 0 .7868933-.3704854 1.527864-1 2 .4297172.3314363.9573157.5108198 1.5.51.6647775.0000053 1.3021824-.2647591 1.7713119-.735765.4691295-.471006.7313472-1.1094628.7286881-1.774235.0008198-.5426843-.1785637-1.0702828-.51-1.5-.134352-.1927889-.2999643-.3617811-.49-.5z" fill="#cfd8dc"/><ellipse id="Oval" cx="19" cy="10.5" fill="#f5f5f5" rx="2" ry="3.5"/><path id="Shape" d="m9 34v18h-4v-18.13c.32573836.0892662.66226511.1330147 1 .13z" fill="#91562d"/><path id="Shape" d="m55 33.87v18.13h-4v-18h3c.3377349.0030147.6742616-.0407338 1-.13z" fill="#91562d"/><rect id="Rectangle-path" fill="#7f8e94" height="4" rx="2" width="58" x="1" y="52"/><path id="Shape" d="m57 52h-3c1.1045695 0 2 .8954305 2 2s-.8954305 2-2 2h3c1.1045695 0 2-.8954305 2-2s-.8954305-2-2-2z" fill="#545c60"/><path id="Shape" d="m3 56h54v2c0 1.1045695-.8954305 2-2 2h-50c-1.1045695 0-2-.8954305-2-2z" fill="#ffdc00"/><path id="Shape" d="m54 56v2c0 1.1045695-.8954305 2-2 2h3c1.1045695 0 2-.8954305 2-2v-2z" fill="#fec108"/><path id="Shape" d="m19 52c-3.36 0-6-2.2-6-5 0-1.1045695.8954305-2 2-2s2 .8954305 2 2c0 .35.76 1 2 1s2-.65 2-1c0-1.1045695.8954305-2 2-2s2 .8954305 2 2c0 2.8-2.64 5-6 5z" fill="#ef314c"/><path id="Shape" d="m41 52c-3.36 0-6-2.2-6-5 0-1.1045695.8954305-2 2-2s2 .8954305 2 2c0 .35.76 1 2 1s2-.65 2-1c0-1.1045695.8954305-2 2-2s2 .8954305 2 2c0 2.8-2.64 5-6 5z" fill="#ef314c"/><path id="Shape" d="m13 29v1c0 2.209139-1.790861 4-4 4h-3c-.33773489.0030147-.67426164-.0407338-1-.13-.68632691-.1691791-1.31692571-.5137686-1.83-1-.75984013-.760562-1.18153465-1.7949751-1.17-2.87-.0022082-.3398782.0518558-.6777782.16-1z" fill="#f44335"/><path id="Shape" d="m24 29v1c0 2.209139-1.790861 4-4 4h-3c-2.209139 0-4-1.790861-4-4v-1z" fill="#f5f5f5"/><path id="Shape" d="m36 29v1c0 2.209139-1.790861 4-4 4h-4c-2.209139 0-4-1.790861-4-4v-1z" fill="#f44335"/><path id="Shape" d="m47 29v1c0 2.209139-1.790861 4-4 4h-3c-2.209139 0-4-1.790861-4-4v-1z" fill="#f5f5f5"/><path id="Shape" d="m58 30c-.0013597 1.8228823-1.2350012 3.4142798-3 3.87-.3257384.0892662-.6622651.1330147-1 .13h-3c-2.209139 0-4-1.790861-4-4v-1h10.84c.1081442.3222218.1622082.6601218.16 1z" fill="#f44335"/><path id="Shape" d="m57.84 29h-3c.1081442.3222218.1622082.6601218.16 1-.0013597 1.8228823-1.2350012 3.4142798-3 3.87-.3257384.0892662-.6622651.1330147-1 .13h3c.3377349.0030147.6742616-.0407338 1-.13 1.7649988-.4557202 2.9986403-2.0471177 3-3.87.0022082-.3398782-.0518558-.6777782-.16-1z" fill="#c81e1e"/><path id="Shape" d="m57.84 29h-55.68c.08262847-.2979072.21080843-.5812523.38-.84l5-7.84c.91325489-1.4384407 2.4961531-2.3128035 4.2-2.32h3.49c.8890267 1.2030944 2.2753339 1.9385359 3.77 2h24c.0893164.893164.6483455 1.6708318 1.4665064 2.0400635.8181608.3692317 1.7711555.2739323 2.5-.25.7288444-.5239322 1.12281-1.3968995 1.0334936-2.2900635.0008198-.5426843-.1785637-1.0702828-.51-1.5h.77c1.7074031.0037897 3.2948339.8785733 4.21 2.32l5 7.84c.1656911.2593632.2904847.5426785.37.84z" fill="#f44335"/><path id="Shape" d="m57.46 28.16-5-7.84c-.9132549-1.4384407-2.4961531-2.3128035-4.2-2.32h-.77c.1710116.2300991.3027898.4868976.39.76.6420718.3918894 1.1859529.9255085 1.59 1.56l5 7.84c.1691916.2587477.2973715.5420928.38.84h3c-.0857368-.298499-.2173042-.5818748-.39-.84z" fill="#c81e1e"/><g fill="#000"><path id="Shape" d="m19 15c1.71 0 3-1.93 3-4.5s-1.29-4.5-3-4.5-3 1.93-3 4.5 1.29 4.5 3 4.5zm0-7c.29 0 1 .88 1 2.5s-.71 2.5-1 2.5-1-.88-1-2.5.71-2.5 1-2.5z"/><path id="Shape" d="m28.53 9.88c1.4902864.8495272 2.7263075 2.0820957 3.58 3.57.1694502.3362797.5134418.5488587.89.55.1568771.0018772.3116796-.0359634.45-.11.490313-.2495756.6869243-.8483464.44-1.34-1.0380205-1.8549542-2.5673963-3.38779014-4.42-4.43-.479574-.2152795-1.0439523-.0224977-1.2916033.44118916-.2476509.46368685-.0940145 1.0399538.3516033 1.31881084z"/><path id="Shape" d="m57 51h-1v-16.42c1.8212771-.7948702 2.9989762-2.5928241 3-4.58.0010834-.842818-.2382824-1.6684563-.69-2.38l-5-7.84c-1.0216364-1.6162508-2.7524384-2.6487894-4.66-2.78.5511344-1.2393067.336633-2.6854635-.5504997-3.711439s-2.2871638-1.4470375-3.5930614-1.08062c-1.3058975.3664176-2.2825278 1.4543393-2.5064389 2.792059h-1.13c-.121487-.5052217-.3424587-.9811606-.65-1.4-10.06-13.45-20.85-12.6-21.31-12.6-3.91.08-6.91 4.44-6.91 10-.025898 2.0803751.4437075 4.1370418 1.37 6h-1.63c-2.05094702.0009456-3.9593252 1.0494222-5.06 2.78l-5 7.84c-.44668046.7132851-.68242715 1.5383985-.68 2.38.00102379 1.9871759 1.17872289 3.7851298 3 4.58v16.42h-1c-1.45200487.0112653-2.687509 1.0608126-2.93339863 2.4918903-.24588964 1.4310777.56842927 2.8328283 1.93339863 3.3281097v1.18c0 1.6568542 1.34314575 3 3 3h50c1.6568542 0 3-1.3431458 3-3v-1.18c1.3649694-.4952814 2.1792883-1.897032 1.9333986-3.3281097-.2458896-1.4310777-1.4813937-2.480625-2.9333986-2.4918903zm-3 0h-2v-16h2zm-7.75 0c1.1082545-1.0361766 1.7411644-2.4828276 1.75-4-.0031398-.9407512-.4473909-1.8255514-1.2-2.39l.91-.9c.3921222-.3921222.3921222-1.0278778 0-1.42s-1.0278778-.3921222-1.42 0l-1.29 1.3-1.29-1.3c-.3921222-.3921221-1.0278778-.3921221-1.42 0-.3921221.3921222-.3921221 1.0278778 0 1.42l.91.91c-.6818247.5051509-1.1178278 1.2754231-1.2 2.12-.6233977.3396821-1.3766023.3396821-2 0-.0797286-.8429316-.5119411-1.6129236-1.19-2.12l.91-.91c.3921222-.3921222.3921222-1.0278778 0-1.42s-1.0278778-.3921222-1.42 0l-1.3 1.3-1.29-1.3c-.3921222-.3921221-1.0278778-.3921221-1.42 0-.3921221.3921222-.3921221 1.0278778 0 1.42l.91.9c-.7526091.5644486-1.1968602 1.4492488-1.2 2.39.0088356 1.5171724.6417455 2.9638234 1.75 4h-11.5c1.1082545-1.0361766 1.7411644-2.4828276 1.75-4-.0031398-.9407512-.4473909-1.8255514-1.2-2.39l.91-.9c.3921221-.3921222.3921221-1.0278778 0-1.42-.3921222-.3921221-1.0278778-.3921221-1.42 0l-1.29 1.3-1.29-1.3c-.3921222-.3921221-1.0278778-.3921221-1.42 0-.3921221.3921222-.3921221 1.0278778 0 1.42l.91.91c-.6818247.5051509-1.1178278 1.2754231-1.2 2.12-.6233977.3396821-1.3766023.3396821-2 0-.0797286-.8429316-.5119411-1.6129236-1.19-2.12l.91-.91c.3921221-.3921222.3921221-1.0278778 0-1.42-.3921222-.3921221-1.0278778-.3921221-1.42 0l-1.3 1.3-1.29-1.3c-.3921222-.3921221-1.0278778-.3921221-1.42 0-.3921221.3921222-.3921221 1.0278778 0 1.42l.91.9c-.7526091.5644486-1.1968602 1.4492488-1.2 2.39.0088356 1.5171724.6417455 2.9638234 1.75 4h-3.75v-16.1c1.1987913-.2449326 2.2661605-.920933 3-1.9.9442719 1.2590292 2.4262135 2 4 2h3c1.5737865 0 3.0557281-.7409708 4-2 .9442719 1.2590292 2.4262135 2 4 2h4c1.5737865 0 3.0557281-.7409708 4-2 .9442719 1.2590292 2.4262135 2 4 2h3c1.5737865 0 3.0557281-.7409708 4-2 .7286915.9903045 1.7967177 1.6774014 3 1.93v16.07zm-10.25-4c0-.5522847.4477153-1 1-1s1 .4477153 1 1c0 1.08 1.37 2 3 2s3-.92 3-2c0-.5522847.4477153-1 1-1s1 .4477153 1 1c0 2.24-2.2 4-5 4s-5-1.76-5-4zm-22 0c0-.5522847.4477153-1 1-1s1 .4477153 1 1c0 1.08 1.37 2 3 2s3-.92 3-2c0-.5522847.4477153-1 1-1s1 .4477153 1 1c0 2.24-2.2 4-5 4s-5-1.76-5-4zm32-17c0 1.6568542-1.3431458 3-3 3h-3c-1.6568542 0-3-1.3431458-3-3zm-11 0c0 1.6568542-1.3431458 3-3 3h-4c-1.6568542 0-3-1.3431458-3-3zm-21 0h9c0 1.6568542-1.3431458 3-3 3h-3c-1.6568542 0-3-1.3431458-3-3zm40 3h-3c-1.6568542 0-3-1.3431458-3-3h9c0 1.6568542-1.3431458 3-3 3zm-11-16c.2974322.000483.5796435-.1314599.77-.36.1879358-.2287694.2648386-.5290567.21-.82-.0103051-.1064178-.0103051-.2135822 0-.32 0-.7053907.4914859-1.3154754 1.1807111-1.4656243.6892251-.1501489 1.3899458.2002114 1.6833617.8416808.2934159.6414695.1002397 1.4007091-.4640728 1.8239435-.2609568.192215-.5759056.2971979-.9.3-.5522847 0-1 .4477153-1 1s.4477153 1 1 1c.4353874-.0017335.8664394-.0865863 1.27-.25.1445983.223897.2242197.4835322.23.75.0828427.8284271-.5215729 1.5671573-1.35 1.65s-1.5671573-.5215729-1.65-1.35c-.0964736-.4731232-.5172392-.8097357-1-.8h-2.54c.3635516-.6039929.5570448-1.2950401.56-2zm-4.43-2.2c.2703803.3423935.4213867.7638066.43 1.2v1c0 1.1045695-.8954305 2-2 2h-13.76c1.8758079-2.2346443 2.8588676-5.0840927 2.76-8 .0632974-2.61951896-.7109187-5.19089751-2.21-7.34 3.81 1.09 9.42 3.91 14.83 11.14zm-19.57-11.8c2.71 0 5 3.66 5 8s-2.29 8-5 8-5-3.66-5-8 2.29-8 5-8zm-10.63 17.85c.73393676-1.1514469 2.0045359-1.8489569 3.37-1.85h3c1.0735826 1.2386918 2.6211802 1.9652634 4.26 2h23.34c.7029095 1.4760883 2.3340744 2.2689077 3.9290279 1.9096839s2.7287367-1.7747792 2.7309721-3.4096839c0-.15 0-.29 0-.43 1.0957509.1972812 2.0596982.8423287 2.66 1.78l4.52 7.15h-8.5l-.92-2.3c-.0979351-.2468077-.2900079-.4445322-.5338726-.5495816-.2438646-.1050493-.5194964-.1087976-.7661274-.0104184-.2468077.0979351-.4445322.2900079-.5495816.5338726-.1050493.2438646-.1087976.5194964-.0104184.7661274l.62 1.56h-8.52v-3c0-.5522847-.4477153-1-1-1s-1 .4477153-1 1v3h-10v-3c0-.5522847-.4477153-1-1-1s-1 .4477153-1 1v3h-8.52l1.45-3.63c.2043453-.5136248-.0463752-1.0956546-.56-1.3-.5136248-.2043453-1.0956546.0463752-1.3.56l-1.75 4.37h-8.5zm-5.37 9.15h9c0 1.6568542-1.3431458 3-3 3h-3c-1.65685425 0-3-1.3431458-3-3zm3 5h2v16h-2zm50 23c0 .5522847-.4477153 1-1 1h-50c-.55228475 0-1-.4477153-1-1v-1h52zm1-3h-54c-.55228475 0-1-.4477153-1-1s.44771525-1 1-1h54c.5522847 0 1 .4477153 1 1s-.4477153 1-1 1z"/></g></g></g></svg>