<svg height="512" viewBox="0 0 60 60" width="512" xmlns="http://www.w3.org/2000/svg"><g id="Page-1" fill="none" fill-rule="evenodd"><g id="002---Fish-Stall" fill-rule="nonzero" transform="translate(0 -1)"><path id="Shape" d="m13 29v1c0 2.209139-1.790861 4-4 4h-3c-.70251958-.0012467-1.39232071-.187493-2-.54-.30157384-.1749902-.58035521-.3865953-.83-.63-.74995428-.7507884-1.17083446-1.7688148-1.17-2.83-.0022082-.3398782.0518558-.6777782.16-1z" fill="#f44335"/><path id="Shape" d="m58 30c.0008345 1.0611852-.4200457 2.0792116-1.17 2.83-.2496448.2434047-.5284262.4550098-.83.63-.6076793.352507-1.2974804.5387533-2 .54h-3c-2.209139 0-4-1.790861-4-4v-1h10.84c.1081442.3222218.1622082.6601218.16 1z" fill="#f44335"/><path id="Shape" d="m57.84 29h-3c.1081442.3222218.1622082.6601218.16 1 .0008345 1.0611852-.4200457 2.0792116-1.17 2.83-.2496448.2434047-.5284262.4550098-.83.63-.6076793.352507-1.2974804.5387533-2 .54h3c.7025196-.0012467 1.3923207-.187493 2-.54.3015738-.1749902.5803552-.3865953.83-.63.7499543-.7507884 1.1708345-1.7688148 1.17-2.83.0022082-.3398782-.0518558-.6777782-.16-1z" fill="#c81e1e"/><path id="Shape" d="m57.84 29h-55.68c.08262847-.2979072.21080843-.5812523.38-.84l5-7.84c.91325489-1.4384407 2.4961531-2.3128035 4.2-2.32h3.4c1.6730656 1.8962892 3.794199 3.3436104 6.17 4.21 1.5064375.5304344 3.0929228.7976675 4.69.79 8.68 0 13.64-7.44 14-8-.05.35-.55 3.75 1.23 5.67s5.61 1.6 5.61 1.6c.2304645-1.4413194.1069136-2.9170658-.36-4.3h1.79c1.7074031.0037897 3.2948339.8785733 4.21 2.32l5 7.84c.1650435.2692442.2865395.5628594.36.87z" fill="#f44335"/><path id="Shape" d="m57.46 28.16-5-7.84c-.9132549-1.4384407-2.4961531-2.3128035-4.2-2.32h-1.79c0 .05 0 .11.05.16 1.2207604.3217575 2.2746187 1.0933961 2.95 2.16l5 7.84c.1691916.2587477.2973715.5420928.38.84h3c-.0857368-.298499-.2173042-.5818748-.39-.84z" fill="#c81e1e"/><path id="Shape" d="m8 44.26c.18823165 1.070006.28856663 2.1536238.3 3.24-.01143337 1.0863762-.11176835 2.169994-.3 3.24-.05171076.3025834.02778358.6128758.21861402.8533222.19083045.2404464.47496482.3883261.78138598.4066778h-5v-18.54c.60767929.352507 1.29748042.5387533 2 .54h3v9c-.30642116.0183517-.59055553.1662314-.78138598.4066778-.19083044.2404464-.27032478.5507388-.21861402.8533222z" fill="#91562d"/><path id="Shape" d="m56 33.46v18.54h-5c.3043615-.0186944.5866362-.1651836.7771277-.4032979.1904914-.2381142.2714449-.5456604.2228723-.8467021-.3732474-2.1438757-.3732474-4.3361243 0-6.48.0548889-.3041115-.0231237-.617168-.2142994-.8599611-.1911756-.2427931-.4771987-.3920619-.7857006-.4100389v-9h3c.7025196-.0012467 1.3923207-.187493 2-.54z" fill="#91562d"/><path id="Shape" d="m59 54c0 1.1045695-.8954305 2-2 2h-54c-1.1045695 0-2-.8954305-2-2 .00223279-.5295768.21441221-1.0366497.59-1.41.37335029-.3755878.88042315-.5877672 1.41-.59h54c1.1045695 0 2 .8954305 2 2z" fill="#7f8e94"/><path id="Shape" d="m57 52h-3c1.1045695 0 2 .8954305 2 2s-.8954305 2-2 2h3c1.1045695 0 2-.8954305 2-2s-.8954305-2-2-2z" fill="#545c60"/><path id="Shape" d="m3 56h54v2c0 1.1045695-.8954305 2-2 2h-50c-1.1045695 0-2-.8954305-2-2z" fill="#ffdc00"/><path id="Shape" d="m54 56v2c0 1.1045695-.8954305 2-2 2h3c1.1045695 0 2-.8954305 2-2v-2z" fill="#fec108"/><path id="Shape" d="m47 29v1c0 2.209139-1.790861 4-4 4h-3c-2.209139 0-4-1.790861-4-4v-1z" fill="#f5f5f5"/><path id="Shape" d="m36 29v1c0 2.209139-1.790861 4-4 4h-4c-2.209139 0-4-1.790861-4-4v-1z" fill="#f44335"/><path id="Shape" d="m24 29v1c0 2.209139-1.790861 4-4 4h-3c-2.209139 0-4-1.790861-4-4v-1z" fill="#f5f5f5"/><path id="Shape" d="m24 15c.0060999 2.6497989-.949747 5.211753-2.69 7.21-2.375801-.8663896-4.4969344-2.3137108-6.17-4.21-.7653485-.8442908-1.4360069-1.7697995-2-2.76-.08-.15-.08-.33 0-.48 1.8361923-3.2081963 4.7265882-5.68164026 8.18-7 1.7434605 2.00747179 2.6961583 4.5811776 2.68 7.24z" fill="#02a9f4"/><path id="Shape" d="m40 15c-.35.53-5.31 8-14 8-1.5970772.0076675-3.1835625-.2595656-4.69-.79 3.5898922-4.1363827 3.5898922-10.2836173 0-14.42.469796-.17287053.9509328-.31320212 1.44-.42 1.0649473-.25109125 2.1558649-.37528803 3.25-.37 2.162355-.00220052 4.298998.46881661 6.26 1.38 3.1167152 1.48846815 5.7862982 3.7717549 7.74 6.62z" fill="#3f51b5"/><path id="Shape" d="m41.57 15c1.482451-.0345035 2.9027055-.6026053 4-1.6 1.88-2 1.22-5.7 1.22-5.7s-3.72-.42-5.61 1.6-1.18 5.7-1.18 5.7z" fill="#02a9f4"/><path id="Shape" d="m46.83 7.7c-1.0043393-.08756542-2.0161723-.02010988-3 .2.1.78.37 3.76-1.25 5.5-.7096253.7001911-1.6049131 1.1825361-2.58 1.39v.21h1.57c1.482451-.0345035 2.9027055-.6026053 4-1.6 1.92-2.02 1.26-5.7 1.26-5.7z" fill="#0377bc"/><path id="Shape" d="m46.83 22.3s-3.72.42-5.61-1.6-1.28-5.32-1.22-5.7h1.57c1.482451.0345035 2.9027055.6026053 4 1.6.3696084.4103432.6610682.8848126.86 1.4.4803394 1.3796277.6176248 2.8554454.4 4.3z" fill="#02a9f4"/><path id="Shape" d="m46.47 18c-.1989318-.5151874-.4903916-.9896568-.86-1.4-1.0972945-.9973947-2.517549-1.5654965-4-1.6h-1.61v.18c.9964914.1966211 1.9139739.6796895 2.64 1.39.3696084.4103432.6610682.8848126.86 1.4.4532317 1.3164153.5869092 2.721742.39 4.1.9838277.2201099 1.9956607.2875654 3 .2.2062842-1.436379.0621897-2.9013397-.42-4.27z" fill="#0377bc"/><path id="Shape" d="m32.26 8.38c-1.961002-.91118339-4.097645-1.38220052-6.26-1.38-1.0941351-.00528803-2.1850527.11890875-3.25.37l.25-.37c1.6125259-2.54857811 4.1753747-4.34833144 7.12-5 1.0845989-.18766679 2.1169803.53634094 2.31 1.62.3626355 1.5740347.3039994 3.21584511-.17 4.76z" fill="#02a9f4"/><path id="Shape" d="m47 47.5s-3 4.5-6.59 4.5c-2.9 0-5.37-2.86-6.25-4-.2303203-.2935477-.2303203-.7064523 0-1 .88-1.16 3.35-4 6.25-4 3.64 0 6.59 4.5 6.59 4.5z" fill="#02a9f4"/><path id="Shape" d="m52 50.74c.0517108.3025834-.0277836.6128758-.218614.8533222-.1908305.2404464-.4749648.3883261-.781386.4066778h-.15c-.1257285-.0003283-.2506107-.0205795-.37-.06-2.0471228-.4989936-3.4877339-2.3329389-3.4877339-4.44s1.4406111-3.9410064 3.4877339-4.44c.1675901-.054512.3443993-.0749131.52-.06.3043615.0186944.5866362.1651836.7771277.4032979.1904914.2381142.2714449.5456604.2228723.8467021-.3732474 2.1438757-.3732474 4.3361243 0 6.48z" fill="#3f51b5"/><path id="Shape" d="m13 47.5s3 4.5 6.59 4.5c2.9 0 5.37-2.86 6.25-4 .2303203-.2935477.2303203-.7064523 0-1-.88-1.16-3.35-4-6.25-4-3.59 0-6.59 4.5-6.59 4.5z" fill="#02a9f4"/><path id="Shape" d="m13 47.5c-.0823325 2.0751611-1.4846044 3.8642667-3.48 4.44-.11938927.0394205-.24427145.0596717-.37.06h-.15c-.30436146-.0186944-.58663624-.1651836-.77712765-.4032979-.19049142-.2381142-.27144497-.5456604-.22287235-.8467021.18877573-1.0732975.28911277-2.1602821.3-3.25-.01143337-1.0863762-.11176835-2.169994-.3-3.24-.05171076-.3025834.02778358-.6128758.21861402-.8533222.19083045-.2404464.47496482-.3883261.78138598-.4066778.17493343-.0181411.35172837-.0011416.52.05 1.9987834.5768934 3.4018905 2.3710965 3.48 4.45z" fill="#3f51b5"/><g fill="#000"><path id="Shape" d="m57 51v-17c.191074-.1325262.3716123-.2796315.54-.44.9420629-.9444029 1.467698-2.2260884 1.46-3.56-.0007879-.8439713-.2437353-1.6699925-.7-2.38l-5-7.83c-1.0944841-1.7284219-2.9942143-2.7800583-5.04-2.79h-1.16c-.2036478-.392518-.4592834-.7557897-.76-1.08-.3429118-.3622318-.7371087-.6721986-1.17-.92.4306684-.2510849.8244216-.5607028 1.17-.92 2.2-2.36 1.5-6.39 1.47-6.56-.0806406-.43176527-.4335821-.76036598-.87-.81-.17 0-4.24-.45-6.45 1.91-.8413357.98392506-1.3612995 2.2018267-1.49 3.49-1.5761104-1.73789-3.4443129-3.18642381-5.52-4.28.2769817-1.43677261.2769817-2.91322739 0-4.35-.1534372-.80105084-.6264141-1.5051004-1.31-1.95-.6470347-.45681303-1.452319-.63014775-2.23-.48-3.218528.67583131-6.0296904 2.61841657-7.8 5.39l-.05.08c-.35.09-.69.2-1 .31-.0530883.01119233-.1038379.03149215-.15.06-3.6440355 1.40005703-6.6997501 4.0041187-8.66 7.38-.2608039.4517256-.2608039 1.0082744 0 1.46.2416573.436438.5053304.8603177.79 1.27h-1.33c-2.0295984.0213039-3.910834 1.0672709-5 2.78l-5 7.84c-.47038203.7056759-.72731132 1.5320161-.74 2.38.00028143 1.3284254.52919338 2.6021317 1.47 3.54.16392947.1674209.34117814.3212594.53.46v17c-1.45200487.0112653-2.687509 1.0608126-2.93339863 2.4918903-.24588964 1.4310777.56842927 2.8328283 1.93339863 3.3281097v1.18c0 1.6568542 1.34314575 3 3 3h50c1.6568542 0 3-1.3431458 3-3v-1.18c1.3649694-.4952814 2.1792883-1.897032 1.9333986-3.3281097-.2458896-1.4310777-1.4813937-2.480625-2.9333986-2.4918903zm-2 0h-2c.0198961-.1526879.0198961-.3073121 0-.46-.1717389-1.0143415-.2587061-2.0412234-.26-3.07-.0176931-.9482087.0559803-1.8959174.22-2.83.1410611-.7686308-.1323954-1.5548181-.72-2.07-.0599985-.0555339-.1272841-.1026338-.2-.14v-7.43h2c.3356686-.0030777.6703689-.0365477 1-.1zm-51.12-18.87c-.56522499-.5645172-.88195748-1.3311539-.88000902-2.13h9.00000902c0 1.6568542-1.3431458 3-3 3h-3c-.79394875.0019547-1.55629708-.3108958-2.12-.87zm42.12-2.13c0 1.6568542-1.3431458 3-3 3h-3c-1.6568542 0-3-1.3431458-3-3zm-11 0c0 1.6568542-1.3431458 3-3 3h-4c-1.6568542 0-3-1.3431458-3-3zm-25.77 21c-.08376437.0243246-.17398896-.0031351-.23-.07.19758123-1.1326926.29794681-2.2802058.3-3.43-.00239381-1.149779-.10275685-2.2972632-.3-3.43.05252183-.0719515.14629955-.1004925.23-.07 1.6494518.3546771 2.8274045 1.8128464 2.8274045 3.5s-1.1779527 3.1453229-2.8274045 3.5zm4.25-1.29c.4221181.4617566.8766023.8928482 1.36 1.29h-2.16c.3278839-.3925433.5973339-.8303996.8-1.3zm.76-2.2c.86-1.11 3-3.5 5.35-3.5s4.61 2.53 5.41 3.49c-.75 1-3 3.5-5.36 3.5s-4.54-2.39-5.4-3.5zm12.4 1.09c.4800454-.6473856.4800454-1.5326144 0-2.18-1-1.32-3.71-4.41-7-4.41-2.58 0-4.78 1.86-6.11 3.3-.6735387-1.5032767-1.9584709-2.6462475-3.53-3.14v-7.27c1.1987913-.2449326 2.2661605-.920933 3-1.9.9442719 1.2590292 2.4262135 2 4 2h3c1.5737865 0 3.0557281-.7409708 4-2 .9442719 1.2590292 2.4262135 2 4 2h4c1.5737865 0 3.0557281-.7409708 4-2 .9442719 1.2590292 2.4262135 2 4 2h3c1.5737865 0 3.0557281-.7409708 4-2 .7286915.9903045 1.7967177 1.6774014 3 1.93v7.27c-1.5507234.5037613-2.8152929 1.6411471-3.48 3.13-1.33-1.47-3.52-3.33-6.11-3.33-3.34 0-6 3.09-7 4.41-.4800454.6473856-.4800454 1.5326144 0 2.18.661481.8784963 1.4121507 1.6861365 2.24 2.41h-11.3c.8452987-.7212653 1.6128105-1.5289961 2.29-2.41zm-12.64-18.6h9c0 1.6568542-1.3431458 3-3 3h-3c-1.6568542 0-3-1.3431458-3-3zm36.86 14c.0564144.0482067.0922031.1162052.1.19-.1900121 1.0759422-.2770722 2.1675419-.26 3.26.00179 1.1464915.1021597 2.2907059.3 3.42-.0525218.0719515-.1462996.1004925-.23.07-1.5580805-.4452239-2.6673576-1.8228099-2.77-3.44.0890311-1.6545461 1.2506385-3.0557857 2.86-3.45zm-15.81 3.5c.75-1 3-3.5 5.36-3.5s4.49 2.39 5.35 3.5c-.86 1.11-3 3.5-5.35 3.5s-4.61-2.54-5.36-3.5zm11.47 2.2c.2026661.4696004.4721161.9074567.8 1.3h-2.16c.4837449-.4003577.9382375-.8347992 1.36-1.3zm9.61-17.58c-.5645172.565225-1.3311539.8819575-2.13.88h-3c-1.6568542 0-3-1.3431458-3-3h9.0000091c.0019456.7939488-.3109049 1.5562971-.8700091 2.12zm-15.23-16.12h.63c1.232788.0176589 2.4195358.4711028 3.35 1.28.8292154 1.1807094 1.185996 2.6292386 1 4.06-1.4144357.047818-2.7965288-.4295028-3.88-1.34-.8560785-1.1478343-1.2487774-2.5758303-1.1-4zm1.1-6c1.1158879-.93458307 2.5470353-1.4068617 4-1.32.1879787 1.4308721-.1689773 2.8801134-1 4.06-.9671745.8309369-2.2050425 1.2791305-3.48 1.26h-.62c-.152791-1.4244973.2403048-2.8539364 1.1-4zm-3.17 5c-1.32 1.72-5.83 7-12.83 7-1.0105436-.0037974-2.0172485-.124602-3-.36 2.6942223-4.0167175 2.6942223-9.2632825 0-13.28.9827515-.23539802 1.9894564-.35620261 3-.36 7 0 11.5 5.29 12.78 7zm-8.53-12c.2548668-.04301273.5164886.01432903.73.16.2238152.1538389.3754324.39209442.42.66.2052864 1.04716347.2491271 2.11957434.13 3.18-1.7856515-.66280749-3.675305-1.00145508-5.58-1-.35 0-.69 0-1 0 1.4079826-1.53151713 3.2622369-2.58109507 5.3-3zm-9.3 6c2.6666667 3.5555556 2.6666667 8.4444444 0 12-2.8423099-1.2497278-5.2306177-3.3447347-6.84-6 1.6153636-2.6502433 4.0018901-4.7436876 6.84-6zm-12.62 11.85c.73202319-1.14846 1.9980901-1.8455504 3.36-1.85h3c1.7076059 1.8305243 3.8209119 3.2348282 6.17 4.1l.17.07c1.5827193.5472204 3.2453522.8277052 4.92.83 5.0009611-.1127425 9.7219045-2.3315859 13-6.11.1387362 1.2892885.6652431 2.5061818 1.51 3.49 1.59 1.71 4.16 2 5.53 2 .3074431.0040909.614811-.0126139.92-.05.4364179-.049634.7893594-.3782347.87-.81.1924516-1.1520178.1924516-2.3279822 0-3.48h.48c1.3674143.0032186 2.6384351.7047316 3.37 1.86l4.49 7.1h-8.49l-.92-2.3c-.0979351-.2468077-.2900079-.4445322-.5338726-.5495816-.2438646-.1050493-.5194964-.1087976-.7661274-.0104184-.2468077.0979351-.4445322.2900079-.5495816.5338726-.1050493.2438646-.1087976.5194964-.0104184.7661274l.62 1.56h-8.52v-3c0-.5522847-.4477153-1-1-1s-1 .4477153-1 1v3h-10v-1c0-.5522847-.4477153-1-1-1s-1 .4477153-1 1v1h-8.52l1.45-3.63c.2043453-.5136248-.0463752-1.0956546-.56-1.3-.5136248-.2043453-1.0956546.0463752-1.3.56l-1.75 4.37h-8.49zm-3.38 14.05c.32963115.0634523.66433139.0969223 1 .1h2v7.35c-.11275494.0640582-.21981325.1376608-.32.22-.54952578.4622424-.80906492 1.1836086-.68 1.89.16817529.9912566.25513087 1.9945902.26 3-.00486913 1.0054098-.09182471 2.0087434-.26 3-.02746226.1789525-.02746226.3610475 0 .54h-2zm51 23.1c0 .5522847-.4477153 1-1 1h-50c-.55228475 0-1-.4477153-1-1v-1h52zm1-3h-54c-.55228475 0-1-.4477153-1-1s.44771525-1 1-1h54c.5522847 0 1 .4477153 1 1s-.4477153 1-1 1z"/><circle id="Oval" cx="19" cy="14" r="1"/></g></g></g></svg>