<svg height="512" viewBox="0 0 60 60" width="512" xmlns="http://www.w3.org/2000/svg"><g id="Page-1" fill="none" fill-rule="evenodd"><g id="008---Spice-Stall" fill-rule="nonzero"><path id="Shape" d="m13 28v1c0 2.209139-1.790861 4-4 4h-3c-.33773489.0030147-.67426164-.0407338-1-.13-.68632691-.1691791-1.31692571-.5137686-1.83-1-.75984013-.760562-1.18153465-1.7949751-1.17-2.87-.0022082-.3398782.0518558-.6777782.16-1z" fill="#f44335"/><path id="Shape" d="m24 28v1c0 2.209139-1.790861 4-4 4h-3c-2.209139 0-4-1.790861-4-4v-1z" fill="#f5f5f5"/><path id="Shape" d="m36 28v1c0 2.209139-1.790861 4-4 4h-4c-2.209139 0-4-1.790861-4-4v-1z" fill="#f44335"/><path id="Shape" d="m57.84 28h-55.68c.08262847-.2979072.21080843-.5812523.38-.84l5-7.84c.91325489-1.4384407 2.4961531-2.3128035 4.2-2.32h10c1.1558805 1.4808026 2.5724469 2.73809 4.18 3.71v.09c0 .6627417.5372583 1.2 1.2 1.2 2.65 0 9.18-.48 13.3-4.59l.38-.41h7.46c1.7074031.0037897 3.2948339.8785733 4.21 2.32l5 7.84c.1656911.2593632.2904847.5426785.37.84z" fill="#f44335"/><path id="Shape" d="m57.46 27.16-5-7.84c-.9132549-1.4384407-2.4961531-2.3128035-4.2-2.32h-3c1.7074031.0037897 3.2948339.8785733 4.21 2.32l5 7.84c.1691916.2587477.2973715.5420928.38.84h3c-.0857368-.298499-.2173042-.5818748-.39-.84z" fill="#c81e1e"/><path id="Shape" d="m58 29c.0008345 1.0611852-.4200457 2.0792116-1.17 2.83-.5130743.4862314-1.1436731.8308209-1.83 1-.3238271.1028066-.6603919.1600226-1 .17h-3c-2.209139 0-4-1.790861-4-4v-1h10.84c.1081442.3222218.1622082.6601218.16 1z" fill="#f44335"/><path id="Shape" d="m57.84 28h-3c.1081442.3222218.1622082.6601218.16 1 .0008345 1.0611852-.4200457 2.0792116-1.17 2.83-.5130743.4862314-1.1436731.8308209-1.83 1-.3238271.1028066-.6603919.1600226-1 .17h3c.3377349.0030147.6742616-.0407338 1-.13.6863269-.1691791 1.3169257-.5137686 1.83-1 .7598401-.760562 1.1815346-1.7949751 1.17-2.87.0022082-.3398782-.0518558-.6777782-.16-1z" fill="#c81e1e"/><path id="Shape" d="m47 28v1c0 2.209139-1.790861 4-4 4h-3c-2.209139 0-4-1.790861-4-4v-1z" fill="#f5f5f5"/><path id="Shape" d="m9 33v18h-4v-18.13c.32573836.0892662.66226511.1330147 1 .13z" fill="#91562d"/><path id="Shape" d="m55 32.87v18.13h-4v-18h3c.3377349.0030147.6742616-.0407338 1-.13z" fill="#91562d"/><rect id="Rectangle-path" fill="#7f8e94" height="4" rx="2" width="58" x="1" y="51"/><path id="Shape" d="m57 51h-3c1.1045695 0 2 .8954305 2 2s-.8954305 2-2 2h3c1.1045695 0 2-.8954305 2-2s-.8954305-2-2-2z" fill="#545c60"/><path id="Shape" d="m3 55h54v2c0 1.1045695-.8954305 2-2 2h-50c-1.1045695 0-2-.8954305-2-2z" fill="#ffdc00"/><path id="Shape" d="m54 55v2c0 1.1045695-.8954305 2-2 2h3c1.1045695 0 2-.8954305 2-2v-2z" fill="#fec108"/><path id="Shape" d="m45 4.11c0 2.56-.45 8.76-4.2 12.89l-.39.41c-4.12 4.11-10.65 4.59-13.3 4.59-.6627417 0-1.2-.5372583-1.2-1.2v-.09c0-2.71.53-9.14 4.6-13.2.2953561-.29579863.6057682-.57617086.93-.84 4.11-3.35 9.9-3.75 12.36-3.76.6627417 0 1.2.5372583 1.2 1.2z" fill="#60a917"/><path id="Shape" d="m43.8 2.91c-.63 0-1.49 0-2.48.13.4119525.19805009.6756169.61293386.68 1.07 0 2.56-.45 8.76-4.2 12.89l-.39.41c-3.14 3.13-7.67 4.15-10.82 4.46.1605379.0840454.3387981.1286105.52.13 2.65 0 9.18-.48 13.3-4.59l.39-.41c3.75-4.13 4.2-10.33 4.2-12.89 0-.6627417-.5372583-1.2-1.2-1.2z" fill="#549414"/><path id="Shape" d="m31.44 6.67c-.3242318.26382914-.6346439.54420137-.93.84-4.07 4.06-4.58 10.49-4.6 13.2-1.6075531-.97191-3.0241195-2.2291974-4.18-3.71-.2659365-.3441938-.5097599-.7049189-.73-1.08-3-5-1.88-11.44-1.26-14 .0667641-.31626711.258295-.59222549.5312302-.76539812.2729351-.17317262.6041904-.22891314.9187698-.15460188 2.18.58 7.02 2.14 10.25 5.67z" fill="#008a00"/><path id="Shape" d="m27 44s0 7-5 7h-2c-5 0-5-7-5-7 0 1.66 2.69 3 6 3s6-1.34 6-3z" fill="#91562d"/><ellipse id="Oval" cx="21" cy="44" fill="#6d4122" rx="6" ry="3"/><path id="Shape" d="m45 44s0 7-5 7h-2c-5 0-5-7-5-7 0 1.66 2.69 3 6 3s6-1.34 6-3z" fill="#91562d"/><ellipse id="Oval" cx="39" cy="44" fill="#6d4122" rx="6" ry="3"/><path id="Shape" d="m57 50h-1v-16.43c.571427-.2339524 1.0938194-.5731682 1.54-1 .9445364-.9468465 1.4703748-2.2326296 1.46-3.57-.0007879-.8439713-.2437353-1.6699925-.7-2.38l-5-7.83c-1.0944841-1.7284219-2.9942143-2.7800583-5.04-2.79h-5.44c2.8-4.23 3.18-9.55 3.18-11.88.0001349-.58393357-.2298032-1.14440764-.64-1.56-.4120888-.41666039-.9739775-.65078069-1.56-.65-2.41 0-8 .39-12.26 3.43-2.8751717-2.56491117-6.342239-4.37575802-10.09-5.27-.5663161-.1473825-1.1681074-.06089752-1.67.24-.5094517.29761606-.8718309.79407553-1 1.37-.65 2.6-1.78 9.1 1.12 14.32h-8.16c-2.0295984.0213039-3.910834 1.0672709-5 2.78l-5 7.84c-.47038203.7056759-.72731132 1.5320161-.74 2.38.00028143 1.3284254.52919338 2.6021317 1.47 3.54.44216353.4271002.96134376.7664337 1.53 1v16.46h-1c-1.45200487.0112653-2.687509 1.0608126-2.93339863 2.4918903-.24588964 1.4310777.56842927 2.8328283 1.93339863 3.3281097v1.18c0 1.6568542 1.34314575 3 3 3h50c1.6568542 0 3-1.3431458 3-3v-1.18c1.3649694-.4952814 2.1792883-1.897032 1.9333986-3.3281097-.2458896-1.4310777-1.4813937-2.480625-2.9333986-2.4918903zm-3 0h-2v-16h2zm-9.86 0c1.2314493-1.7566444 1.8818844-3.8548222 1.86-6 0-2.28-3-4-7-4s-7 1.72-7 4c-.0218844 2.1451778.6285507 4.2433556 1.86 6h-7.72c1.2314493-1.7566444 1.8818844-3.8548222 1.86-6 0-2.28-3-4-7-4s-7 1.72-7 4c-.0218844 2.1451778.6285507 4.2433556 1.86 6h-5.86v-16.1c1.1987913-.2449326 2.2661605-.920933 3-1.9.9442719 1.2590292 2.4262135 2 4 2h3c1.5737865 0 3.0557281-.7409708 4-2 .9442719 1.2590292 2.4262135 2 4 2h4c1.5737865 0 3.0557281-.7409708 4-2 .9442719 1.2590292 2.4262135 2 4 2h3c1.5737865 0 3.0557281-.7409708 4-2 .7286915.9903045 1.7967177 1.6774014 3 1.93v16.07zm-9.6-2.87c1.407873.603895 2.9283781.9004957 4.46.87 1.5316219.0304957 3.052127-.266105 4.46-.87-.46 1.45-1.46 2.87-3.46 2.87h-2c-1.95 0-2.95-1.42-3.46-2.87zm9.46-3.13c0 .82-2 2-5 2s-5-1.18-5-2 2-2 5-2 5 1.18 5 2zm-27.46 3.13c1.407873.603895 2.9283781.9004957 4.46.87 1.5316219.0304957 3.052127-.266105 4.46-.87-.46 1.45-1.46 2.87-3.46 2.87h-2c-1.95 0-2.95-1.42-3.46-2.87zm9.46-3.13c0 .82-1.95 2-5 2s-5-1.18-5-2 1.95-2 5-2 5 1.18 5 2zm20-15c0 1.6568542-1.3431458 3-3 3h-3c-1.6568542 0-3-1.3431458-3-3zm-11 0c0 1.6568542-1.3431458 3-3 3h-4c-1.6568542 0-3-1.3431458-3-3zm-21 0h9c0 1.6568542-1.3431458 3-3 3h-3c-1.6568542 0-3-1.3431458-3-3zm42.13 2.12c-.5645172.565225-1.3311539.8819575-2.13.88h-3c-1.6568542 0-3-1.3431458-3-3h9.0000091c.0019456.7939488-.3109049 1.5562971-.8700091 2.12zm-12.33-27.21c.1082984.0050452.1949548.09170164.2.2 0 2.5-.45 8.74-4.3 12.59-3.33 3.3-8.43 4.1-11.37 4.3 2.3-2.46 7.22-7.66 12.17-12.44.3500669-.38925568.3406662-.9826214-.0215559-1.36059229-.3622221-.37797088-.954651-.41260125-1.3584441-.07940771-4.93 4.71-9.81 9.88-12.12 12.39.17-3 1-8 4.26-11.3 3.8-3.85 10.04-4.29 12.54-4.3zm-23.1-1.76c.0053842-.06116437.0385652-.11646603.09-.15.0643694-.03970607.1456306-.03970607.21 0 3.3259864.79894005 6.4121342 2.38316262 9 4.62l-.19.17c-3.56 3.56-4.55 8.76-4.81 12.06-1.2533849-.9473105-2.3183882-2.1208492-3.14-3.46-2.81-4.63-1.75-10.81-1.16-13.24zm-12.32 17.7c.73202319-1.14846 1.9980901-1.8455504 3.36-1.85h9.51c1.0792723 1.2715626 2.3433659 2.3738522 3.75 3.27.088339.4115854.2972103.7875539.6 1.08h.05c.3970751.3677918.9187632.5714646 1.46.57 2.75 0 9.62-.51 14-4.89l.11-.11h7c1.3674143.0032186 2.6384351.7047316 3.37 1.86l4.58 7.22h-8.49l-1.75-4.37c-.2043454-.5136248-.7863752-.7643454-1.3-.56s-.7643454.7863752-.56 1.3l1.45 3.63h-8.52v-2c0-.5522847-.4477153-1-1-1s-1 .4477153-1 1v2h-10v-2c0-.5522847-.4477153-1-1-1s-1 .4477153-1 1v2h-8.52l1.45-3.63c.2043453-.5136248-.0463752-1.0956546-.56-1.3-.5136248-.2043453-1.0956546.0463752-1.3.56l-1.75 4.37h-8.49zm-5.38 9.15h9c0 1.6568542-1.3431458 3-3 3h-3c-1.65685425 0-3-1.3431458-3-3zm3 5h2v16h-2zm50 23c0 .5522847-.4477153 1-1 1h-50c-.55228475 0-1-.4477153-1-1v-1h52zm1-3h-54c-.55228475 0-1-.4477153-1-1s.44771525-1 1-1h54c.5522847 0 1 .4477153 1 1s-.4477153 1-1 1z" fill="#000"/></g></g></svg>