<svg height="512" viewBox="0 0 60 60" width="512" xmlns="http://www.w3.org/2000/svg"><g id="Page-1" fill="none" fill-rule="evenodd"><g id="016---Cheese-Stall" fill-rule="nonzero" transform="translate(0 -1)"><path id="Shape" d="m13 29v1c0 2.209139-1.790861 4-4 4h-3c-.33773489.0030147-.67426164-.0407338-1-.13-.68632691-.1691791-1.31692571-.5137686-1.83-1-.75984013-.760562-1.18153465-1.7949751-1.17-2.87-.0022082-.3398782.0518558-.6777782.16-1z" fill="#f44335"/><path id="Shape" d="m24 29v1c0 2.209139-1.790861 4-4 4h-3c-2.209139 0-4-1.790861-4-4v-1z" fill="#f5f5f5"/><path id="Shape" d="m36 29v1c0 2.209139-1.790861 4-4 4h-4c-2.209139 0-4-1.790861-4-4v-1z" fill="#f44335"/><path id="Shape" d="m57.84 29h-55.68c.08262847-.2979072.21080843-.5812523.38-.84l5-7.84c.91325489-1.4384407 2.4961531-2.3128035 4.2-2.32h3.26v3c0 .5522847.4477153 1 1 1h28c.5522847 0 1-.4477153 1-1v-3h3.26c1.7074031.0037897 3.2948339.8785733 4.21 2.32l5 7.84c.1656911.2593632.2904847.5426785.37.84z" fill="#f44335"/><path id="Shape" d="m57.46 28.16-5-7.84c-.9132549-1.4384407-2.4961531-2.3128035-4.2-2.32h-3c1.7074031.0037897 3.2948339.8785733 4.21 2.32l5 7.84c.1691916.2587477.2973715.5420928.38.84h3c-.0857368-.298499-.2173042-.5818748-.39-.84z" fill="#c81e1e"/><path id="Shape" d="m58 30c.0008345 1.0611852-.4200457 2.0792116-1.17 2.83-.5130743.4862314-1.1436731.8308209-1.83 1-.3238271.1028066-.6603919.1600226-1 .17h-3c-2.209139 0-4-1.790861-4-4v-1h10.84c.1081442.3222218.1622082.6601218.16 1z" fill="#f44335"/><path id="Shape" d="m57.84 29h-3c.1081442.3222218.1622082.6601218.16 1 .0008345 1.0611852-.4200457 2.0792116-1.17 2.83-.5130743.4862314-1.1436731.8308209-1.83 1-.3238271.1028066-.6603919.1600226-1 .17h3c.3377349.0030147.6742616-.0407338 1-.13.6863269-.1691791 1.3169257-.5137686 1.83-1 .7598401-.760562 1.1815346-1.7949751 1.17-2.87.0022082-.3398782-.0518558-.6777782-.16-1z" fill="#c81e1e"/><path id="Shape" d="m47 29v1c0 2.209139-1.790861 4-4 4h-3c-2.209139 0-4-1.790861-4-4v-1z" fill="#f5f5f5"/><path id="Shape" d="m9 34v18h-4v-18.13c.32573836.0892662.66226511.1330147 1 .13z" fill="#91562d"/><path id="Shape" d="m55 33.87v18.13h-4v-18h3c.3377349.0030147.6742616-.0407338 1-.13z" fill="#91562d"/><rect id="Rectangle-path" fill="#7f8e94" height="4" rx="2" width="58" x="1" y="52"/><path id="Shape" d="m57 52h-3c1.1045695 0 2 .8954305 2 2s-.8954305 2-2 2h3c1.1045695 0 2-.8954305 2-2s-.8954305-2-2-2z" fill="#545c60"/><path id="Shape" d="m3 56h54v2c0 1.1045695-.8954305 2-2 2h-50c-1.1045695 0-2-.8954305-2-2z" fill="#ffdc00"/><path id="Shape" d="m54 56v2c0 1.1045695-.8954305 2-2 2h3c1.1045695 0 2-.8954305 2-2v-2z" fill="#fec108"/><path id="Shape" d="m45 8v13c0 .5522847-.4477153 1-1 1h-28c-.5522847 0-1-.4477153-1-1v-13z" fill="#ffdc00"/><path id="Shape" d="m42 8v13c0 .5522847-.4477153 1-1 1h3c.5522847 0 1-.4477153 1-1v-13z" fill="#fec108"/><path id="Shape" d="m15 8s0-3.91 7.52-5.93c.3279556-.08467777.6720444-.08467777 1 0l21.48 5.93z" fill="#ffeb3a"/><g fill="#ff9801"><path id="Shape" d="m45 17.23c-.5491238.494157-1.2612678.7683324-2 .77-1.6568542 0-2.9999999-1.3431458-2.9999999-3s1.3431457-3 2.9999999-3c.7387322.0016676 1.4508762.275843 2 .77z"/><circle id="Oval" cx="34" cy="20" r="2"/><path id="Shape" d="m23 8c0 2.209139 1.790861 4 4 4s4-1.790861 4-4z"/><circle id="Oval" cx="21" cy="16" r="2"/></g><rect id="Rectangle-path" fill="#ffdc00" height="6" rx="2" width="15" x="13" y="46"/><rect id="Rectangle-path" fill="#ffeb3a" height="6" rx="2" width="15" x="13" y="40"/><rect id="Rectangle-path" fill="#ffeb3a" height="6" rx="2" width="15" x="32" y="46"/><rect id="Rectangle-path" fill="#ffdc00" height="6" rx="2" width="15" x="32" y="40"/><path id="Shape" d="m57 51h-1v-16.43c.571427-.2339524 1.0938194-.5731682 1.54-1 .9445364-.9468465 1.4703748-2.2326296 1.46-3.57-.0007879-.8439713-.2437353-1.6699925-.7-2.38l-5-7.83c-1.0944841-1.7284219-2.9942143-2.7800583-5.04-2.79h-2.26v-9s0 0 0-.06c.0047474-.06991951.0047474-.14008049 0-.21-.0155207-.05814941-.0355823-.11499068-.06-.17-.0332421-.05560848-.0699828-.1090494-.11-.16-.0345406-.05108224-.0748014-.09805317-.12-.14l-.15-.1c-.0581177-.03995926-.1222647-.07034468-.19-.09l-21.67-5.99c-.4728815-.11690845-.9671185-.11690845-1.44 0-8.17 2.22-8.26 6.73-8.26 6.92v9h-2.26c-2.0295984.0213039-3.910834 1.0672709-5 2.78l-5 7.84c-.47038203.7056759-.72731132 1.5320161-.74 2.38.00028143 1.3284254.52919338 2.6021317 1.47 3.54.44216353.4271002.96134376.7664337 1.53 1v16.46h-1c-1.45200487.0112653-2.687509 1.0608126-2.93339863 2.4918903-.24588964 1.4310777.56842927 2.8328283 1.93339863 3.3281097v1.18c0 1.6568542 1.34314575 3 3 3h50c1.6568542 0 3-1.3431458 3-3v-1.18c1.3649694-.4952814 2.1792883-1.897032 1.9333986-3.3281097-.2458896-1.4310777-1.4813937-2.480625-2.9333986-2.4918903zm-3 0h-2v-16h2zm-6.18 0c.1164225-.320674.1772954-.6588568.18-1v-2c-.0044106-.7400546-.2822109-1.452363-.78-2 .4977891-.547637.7755894-1.2599454.78-2v-2c0-1.6568542-1.3431458-3-3-3h-11c-1.6568542 0-3 1.3431458-3 3v2c.0044106.7400546.2822109 1.452363.78 2-.4977891.547637-.7755894 1.2599454-.78 2v2c.0027046.3411432.0635775.679326.18 1h-2.36c.1164225-.320674.1772954-.6588568.18-1v-2c-.0044106-.7400546-.2822109-1.452363-.78-2 .4977891-.547637.7755894-1.2599454.78-2v-2c0-1.6568542-1.3431458-3-3-3h-11c-1.6568542 0-3 1.3431458-3 3v2c.0044106.7400546.2822109 1.452363.78 2-.4977891.547637-.7755894 1.2599454-.78 2v2c.0027046.3411432.0635775.679326.18 1h-2.18v-16.1c1.1987913-.2449326 2.2661605-.920933 3-1.9.9442719 1.2590292 2.4262135 2 4 2h3c1.5737865 0 3.0557281-.7409708 4-2 .9442719 1.2590292 2.4262135 2 4 2h4c1.5737865 0 3.0557281-.7409708 4-2 .9442719 1.2590292 2.4262135 2 4 2h3c1.5737865 0 3.0557281-.7409708 4-2 .7286915.9903045 1.7967177 1.6774014 3 1.93v16.07zm-14.82-7v-2c0-.5522847.4477153-1 1-1h11c.5522847 0 1 .4477153 1 1v2c0 .5522847-.4477153 1-1 1h-11c-.5522847 0-1-.4477153-1-1zm0 6v-2c0-.5522847.4477153-1 1-1h11c.5522847 0 1 .4477153 1 1v2c0 .5522847-.4477153 1-1 1h-11c-.5522847 0-1-.4477153-1-1zm-19-6v-2c0-.5522847.4477153-1 1-1h11c.5522847 0 1 .4477153 1 1v2c0 .5522847-.4477153 1-1 1h-11c-.5522847 0-1-.4477153-1-1zm0 6v-2c0-.5522847.4477153-1 1-1h11c.5522847 0 1 .4477153 1 1v2c0 .5522847-.4477153 1-1 1h-11c-.5522847 0-1-.4477153-1-1zm32-20c0 1.6568542-1.3431458 3-3 3h-3c-1.6568542 0-3-1.3431458-3-3zm-11 0c0 1.6568542-1.3431458 3-3 3h-4c-1.6568542 0-3-1.3431458-3-3zm-21 0h9c0 1.6568542-1.3431458 3-3 3h-3c-1.6568542 0-3-1.3431458-3-3zm42.13 2.12c-.5645172.565225-1.3311539.8819575-2.13.88h-3c-1.6568542 0-3-1.3431458-3-3h9.0000091c.0019456.7939488-.3109049 1.5562971-.8700091 2.12zm-23.13-12.12c0-.5522847.4477153-1 1-1s1 .4477153 1 1-.4477153 1-1 1-1-.4477153-1-1zm1-3c-.9724158.0027302-1.8831896.476617-2.4434995 1.2713829-.5603099.7947658-.7006442 1.8118124-.3765005 2.7286171h-15.18v-12h6.1c.4731925 2.330324 2.5221184 4.0050126 4.9 4.0050126s4.4268075-1.6746886 4.9-4.0050126h12.1v2.14c-.3265477-.0864273-.6622724-.1334288-1-.14-2.209139 0-4 1.790861-4 4s1.790861 4 4 4c.3377276-.0065712.6734523-.0535727 1-.14v2.14h-7.18c.3241437-.9168047.1838094-1.9338513-.3765005-2.7286171-.5603099-.7947659-1.4710837-1.2686527-2.4434995-1.2713829zm-9.82-8h5.64c-.4306251 1.1864534-1.5578155 1.9764767-2.82 1.9764767s-2.3893749-.7900233-2.82-1.9764767zm19.82 7.73c-.8404494.4875305-1.9097033.3004965-2.534755-.4433796-.6250516-.7438761-.6250516-1.8293647 0-2.5732408.6250517-.7438761 1.6943056-.9309101 2.534755-.4433796zm-21.22-13.73c.1418566-.02909735.2881434-.02909735.43 0l14.42 4h-21.27c.64-1.09 2.18-2.83 6.42-4zm-14.4 17.85c.73202319-1.14846 1.9980901-1.8455504 3.36-1.85h2.26v2c0 1.1045695.8954305 2 2 2h28c1.1045695 0 2-.8954305 2-2v-2h2.26c1.3674143.0032186 2.6384351.7047316 3.37 1.86l4.54 7.14h-8.49l-.92-2.3c-.0979351-.2468077-.2900079-.4445322-.5338726-.5495816-.2438646-.1050493-.5194964-.1087976-.7661274-.0104184-.2468077.0979351-.4445322.2900079-.5495816.5338726-.1050493.2438646-.1087976.5194964-.0104184.7661274l.62 1.56h-8.52v-2c0-.5522847-.4477153-1-1-1s-1 .4477153-1 1v2h-10v-2c0-.5522847-.4477153-1-1-1s-1 .4477153-1 1v2h-8.52l.62-1.56c.0983792-.246631.0946309-.5222628-.0104184-.7661274-.1050494-.2438647-.3027739-.4359375-.5495816-.5338726-.246631-.0983792-.5222628-.0946309-.7661274.0104184-.2438647.1050494-.4359375.3027739-.5338726.5495816l-.92 2.3h-8.49zm-5.38 9.15h9c0 1.6568542-1.3431458 3-3 3h-3c-1.65685425 0-3-1.3431458-3-3zm3 5h2v16h-2zm50 23c0 .5522847-.4477153 1-1 1h-50c-.55228475 0-1-.4477153-1-1v-1h52zm1-3h-54c-.55228475 0-1-.4477153-1-1s.44771525-1 1-1h54c.5522847 0 1 .4477153 1 1s-.4477153 1-1 1z" fill="#000"/><path id="Shape" d="m21 13c-1.6568542 0-3 1.3431458-3 3s1.3431458 3 3 3 3-1.3431458 3-3-1.3431458-3-3-3zm0 4c-.5522847 0-1-.4477153-1-1s.4477153-1 1-1 1 .4477153 1 1-.4477153 1-1 1z" fill="#000"/><circle id="Oval" cx="27" cy="18" fill="#000" r="1"/><circle id="Oval" cx="34" cy="13" fill="#000" r="1"/></g></g></svg>