<svg height="512" viewBox="0 0 60 61" width="512" xmlns="http://www.w3.org/2000/svg"><g id="Page-1" fill="none" fill-rule="evenodd"><g id="039---Plant-Stall" fill-rule="nonzero"><path id="Shape" d="m13 29v1c0 2.209139-1.790861 4-4 4h-3c-.33773489.0030147-.67426164-.0407338-1-.13-.68632691-.1691791-1.31692571-.5137686-1.83-1-.75984013-.760562-1.18153465-1.7949751-1.17-2.87-.0022082-.3398782.0518558-.6777782.16-1z" fill="#f44335"/><path id="Shape" d="m24 29v1c0 2.209139-1.790861 4-4 4h-3c-2.209139 0-4-1.790861-4-4v-1z" fill="#f5f5f5"/><path id="Shape" d="m36 29v1c0 2.209139-1.790861 4-4 4h-4c-2.209139 0-4-1.790861-4-4v-1z" fill="#f44335"/><path id="Shape" d="m57.84 29h-55.68c.08262847-.2979072.21080843-.5812523.38-.84l5-7.84c.91325489-1.4384407 2.4961531-2.3128035 4.2-2.32h9.62l.47 5.18c.093406 1.0337275.9620696 1.8242114 2 1.82h12.34c1.0379304.0042114 1.906594-.7862725 2-1.82l.47-5.18h9.36c1.7945416-.0675909 3.4923777.8136127 4.47 2.32l5 7.84c.1656911.2593632.2904847.5426785.37.84z" fill="#f44335"/><path id="Shape" d="m57.46 28.16-5-7.84c-.9757682-1.5032546-2.668967-2.3840217-4.46-2.32h-3c1.7945416-.0675909 3.4923777.8136127 4.47 2.32l5 7.84c.1691916.2587477.2973715.5420928.38.84h3c-.0857368-.298499-.2173042-.5818748-.39-.84z" fill="#c81e1e"/><path id="Shape" d="m58 30c.0008345 1.0611852-.4200457 2.0792116-1.17 2.83-.5130743.4862314-1.1436731.8308209-1.83 1-.3238271.1028066-.6603919.1600226-1 .17h-3c-2.209139 0-4-1.790861-4-4v-1h10.84c.1081442.3222218.1622082.6601218.16 1z" fill="#f44335"/><path id="Shape" d="m57.84 29h-3c.1081442.3222218.1622082.6601218.16 1 .0008345 1.0611852-.4200457 2.0792116-1.17 2.83-.5130743.4862314-1.1436731.8308209-1.83 1-.3238271.1028066-.6603919.1600226-1 .17h3c.3377349.0030147.6742616-.0407338 1-.13.6863269-.1691791 1.3169257-.5137686 1.83-1 .7598401-.760562 1.1815346-1.7949751 1.17-2.87.0022082-.3398782-.0518558-.6777782-.16-1z" fill="#c81e1e"/><path id="Shape" d="m47 29v1c0 2.209139-1.790861 4-4 4h-3c-2.209139 0-4-1.790861-4-4v-1z" fill="#f5f5f5"/><path id="Shape" d="m9 34v18h-4v-18.13c.32573836.0892662.66226511.1330147 1 .13z" fill="#91562d"/><path id="Shape" d="m55 33.87v18.13h-4v-18h3c.3377349.0030147.6742616-.0407338 1-.13z" fill="#91562d"/><rect id="Rectangle-path" fill="#7f8e94" height="4" rx="2" width="58" x="1" y="52"/><path id="Shape" d="m57 52h-3c1.1045695 0 2 .8954305 2 2s-.8954305 2-2 2h3c1.1045695 0 2-.8954305 2-2s-.8954305-2-2-2z" fill="#545c60"/><path id="Shape" d="m3 56h54v2c0 1.1045695-.8954305 2-2 2h-50c-1.1045695 0-2-.8954305-2-2z" fill="#ffdc00"/><path id="Shape" d="m54 56v2c0 1.1045695-.8954305 2-2 2h3c1.1045695 0 2-.8954305 2-2v-2z" fill="#fec108"/><rect id="Rectangle-path" fill="#ff5722" height="4" rx="1" width="22" x="19" y="10"/><path id="Shape" d="m40 10h-3c.5522847 0 1 .4477153 1 1v2c0 .5522847-.4477153 1-1 1h3c.5522847 0 1-.4477153 1-1v-2c0-.5522847-.4477153-1-1-1z" fill="#d84315"/><path id="Shape" d="m39 14-.36 4-.47 5.18c-.093406 1.0337275-.9620696 1.8242114-2 1.82h-12.34c-1.0379304.0042114-1.906594-.7862725-2-1.82l-.47-5.18-.36-4z" fill="#ff5722"/><path id="Shape" d="m36 14-.36 4-.47 5.18c-.093406 1.0337275-.9620696 1.8242114-2 1.8200167l3-.0000167c1.0379304.0042114 1.906594-.7862725 2-1.82l.47-5.18.36-4z" fill="#d84315"/><path id="Shape" d="m30 5.81c-.6062207 1.31711128-.9460694 2.74107726-1 4.19-1.639165-.09222844-3.208734-.69348874-4.49-1.72-2.51-2.21-2.51-6.28-2.51-6.28s4-.47 6.48 1.72c.6418548.58754396 1.1587999 1.29834348 1.52 2.09z" fill="#008a00"/><path id="Shape" d="m38 2s0 4-2.52 6.22-6.48 1.78-6.48 1.78c.056544-1.4421426.3963328-2.85906201 1-4.17.3709865-.75698325.8835579-1.4358857 1.51-2 2.49-2.26 6.49-1.83 6.49-1.83z" fill="#60a917"/><path id="Shape" d="m24 52h-6l-1-8h8z" fill="#ff5722"/><path id="Shape" d="m42 52h-6l-1-8h8z" fill="#ff5722"/><path id="Shape" d="m57 51h-1v-16.43c.571427-.2339524 1.0938194-.5731682 1.54-1 .9445364-.9468465 1.4703748-2.2326296 1.46-3.57-.0007879-.8439713-.2437353-1.6699925-.7-2.38l-5-7.83c-1.1584205-1.7915172-3.1674001-2.8490744-5.3-2.79h-8.27l.18-2h.09c1.1045695 0 2-.8954305 2-2v-2c0-1.1045695-.8954305-2-2-2h-3.84c2.77-2.46 2.84-6.77 2.84-6.95.0036739-.50862567-.3750349-.9389766-.88-1-.19 0-4.48-.49-7.27 2-.3091681.28174779-.593548.58954719-.85.92-.2554983-.34967998-.5434429-.67445462-.86-.97-2.78-2.46-7.08-2-7.26-2-.5049651.0610234-.8836739.49137433-.88 1 0 .18.07 4.49 2.84 7h-3.84c-1.1045695 0-2 .8954305-2 2v2c0 1.1045695.8954305 2 2 2h.09l.18 2h-8.53c-2.0295984.0213039-3.910834 1.0672709-5 2.78l-5 7.84c-.47038203.7056759-.72731132 1.5320161-.74 2.38.00028143 1.3284254.52919338 2.6021317 1.47 3.54.44216353.4271002.96134376.7664337 1.53 1v16.46h-1c-1.45200487.0112653-2.687509 1.0608126-2.93339863 2.4918903-.24588964 1.4310777.56842927 2.8328283 1.93339863 3.3281097v1.18c0 1.6568542 1.34314575 3 3 3h50c1.6568542 0 3-1.3431458 3-3v-1.18c1.3649694-.4952814 2.1792883-1.897032 1.9333986-3.3281097-.2458896-1.4310777-1.4813937-2.480625-2.9333986-2.4918903zm-3 0h-2v-16h2zm-10.87 0 .75-6h.12c.5522847 0 1-.4477153 1-1s-.4477153-1-1-1h-4.06c-.0908493-1.0222591-.3057623-2.0296638-.64-3 .2567387-.4795277.6595407-.8648166 1.15-1.1.3460386-.1440974.5824323-.4696151.6123817-.8432591s-.1515756-.73266-.4702434-.9300368c-.3186678-.1973769-.7209575-.1999648-1.0421383-.0067041-.4645864.2271159-.8872552.5314375-1.25.9-.174485-.2573509-.3719613-.4983389-.59-.72-.3921222-.3921222-1.0278778-.3921222-1.42 0s-.3921222 1.0278778 0 1.42c.9798907 1.2205796 1.553344 2.7171529 1.64 4.28h-3.93c-.5522847 0-1 .4477153-1 1s.4477153 1 1 1h.12l.75 6h-9.74l.75-6h.12c.5522847 0 1-.4477153 1-1s-.4477153-1-1-1h-4.06c-.0908493-1.0222591-.3057623-2.0296638-.64-3 .2567387-.4795277.6595407-.8648166 1.15-1.1.3460386-.1440974.5824323-.4696151.6123817-.8432591s-.1515756-.73266-.4702434-.9300368c-.3186678-.1973769-.7209575-.1999648-1.0421383-.0067041-.4645864.2271159-.8872552.5314375-1.25.9-.174485-.2573509-.3719613-.4983389-.59-.72-.2536586-.2536586-.623374-.3527235-.969878-.259878-.3465041.0928454-.6171546.3634959-.71.71-.0928455.346504.0062194.7162194.259878.969878.9798907 1.2205796 1.553344 2.7171529 1.64 4.28h-3.93c-.5522847 0-1 .4477153-1 1s.4477153 1 1 1h.12l.75 6h-6.87v-16.1c1.1987913-.2449326 2.2661605-.920933 3-1.9.9442719 1.2590292 2.4262135 2 4 2h3c1.5737865 0 3.0557281-.7409708 4-2 .9442719 1.2590292 2.4262135 2 4 2h4c1.5737865 0 3.0557281-.7409708 4-2 .9442719 1.2590292 2.4262135 2 4 2h3c1.5737865 0 3.0557281-.7409708 4-2 .7286915.9903045 1.7967177 1.6774014 3 1.93v16.07zm-7-6h5.74l-.75 6h-4.24zm-18 0h5.74l-.75 6h-4.24zm16.87-19v2h-10v-2zm0 4c0 1.6568542-1.3431458 3-3 3h-4c-1.6568542 0-3-1.3431458-3-3zm11 0c0 1.6568542-1.3431458 3-3 3h-3c-1.6568542 0-3-1.3431458-3-3zm-32 0h9c0 1.6568542-1.3431458 3-3 3h-3c-1.6568542 0-3-1.3431458-3-3zm42.13 2.12c-.5645172.565225-1.3311539.8819575-2.13.88h-3c-1.6568542 0-3-1.3431458-3-3h9.0000091c.0019456.7939488-.3109049 1.5562971-.8700091 2.12zm-8.13-13.12c1.454434-.0685522 2.8361149.6394165 3.63 1.86l4.54 7.14h-8.49l-1.75-4.37c-.2043454-.5136248-.7863752-.7643454-1.3-.56s-.7643454.7863752-.56 1.3l1.45 3.63h-8.52v-2.13c1.1861933-.3399686 2.0432303-1.3715872 2.16-2.6l.39-4.27zm-11.09-16c-.1582203 1.69869807-.8962092 3.29120043-2.09 4.51-1.1921432.93482216-2.6553872 1.45765997-4.17 1.49h-.56c.1689277-1.68993403.9056769-3.27271103 2.09-4.49 1.3598658-1.02505062 3.0277346-1.55749923 4.73-1.51zm-13.82 0c1.70204-.04590857 3.3693963.48637643 4.73 1.51.4235154.39398105.7813595.85310173 1.06 1.36-.3931112.96124398-.6587009 1.96981217-.79 3-1.0734534-.17851936-2.0807377-.63731664-2.92-1.33-1.187567-1.23404338-1.9209307-2.83475066-2.08-4.54zm-3.09 8h9.15.79.77 9.29v2h-20zm17.91 4-.74 8.09c-.046703.5168638-.4810348.9121057-1 .91h-12.34c-.5189652.0021057-.953297-.3931362-1-.91l-.74-8.09zm-29.53 5.85c.73202319-1.14846 1.9980901-1.8455504 3.36-1.85h8.71l.39 4.27c.1167697 1.2284128.9738067 2.2600314 2.16 2.6v2.13h-8.52l1.45-3.63c.2043453-.5136248-.0463752-1.0956546-.56-1.3-.5136248-.2043453-1.0956546.0463752-1.3.56l-1.75 4.37h-8.49zm-5.38 9.15h9c0 1.6568542-1.3431458 3-3 3h-3c-1.65685425 0-3-1.3431458-3-3zm3 5h2v16h-2zm50 23c0 .5522847-.4477153 1-1 1h-50c-.55228475 0-1-.4477153-1-1v-1h52zm1-3h-54c-.55228475 0-1-.4477153-1-1s.44771525-1 1-1h54c.5522847 0 1 .4477153 1 1s-.4477153 1-1 1z" fill="#000"/></g></g></svg>