<?xml version="1.0" encoding="iso-8859-1"?>
<!-- Generator: Adobe Illustrator 19.0.0, SVG Export Plug-In . SVG Version: 6.00 Build 0)  -->
<svg version="1.1" id="Capa_1" xmlns="http://www.w3.org/2000/svg" xmlns:xlink="http://www.w3.org/1999/xlink" x="0px" y="0px"
	 viewBox="0 0 511.996 511.996" style="enable-background:new 0 0 511.996 511.996;" xml:space="preserve">
<g>
	<path style="fill:#BF4340;" d="M169.582,38.284c-21.056-3.241-58.598,23.516-73.562,54.488l13.468,28.244l53.463-30.658
		c-1.567-17.023,6.323-33.661,11.303-42.254C176.572,44.105,174.152,38.987,169.582,38.284z"/>
	<path style="fill:#BF4340;" d="M342.414,38.284c21.056-3.241,58.598,23.516,73.562,54.488l-13.468,28.244l-53.463-30.658
		c1.567-17.023-6.323-33.661-11.303-42.254C335.424,44.105,337.845,38.987,342.414,38.284z"/>
</g>
<g>
	<path style="fill:#D44A47;" d="M229.761,60.651c-0.791-3.97-5.765-5.331-8.463-2.314c-8.301,9.283-23.903,24.414-36.779,23.574
		c-18.504-1.207-44.652-8.85-76.156,18.46l-13.548,44.274l33.53,19.079c0,0-0.545-11.417,60.199-34.748
		C233.677,111.64,233.059,77.204,229.761,60.651z"/>
	<path style="fill:#D44A47;" d="M282.236,60.651c0.791-3.97,5.765-5.331,8.463-2.314c8.301,9.283,23.903,24.414,36.779,23.574
		c18.504-1.207,44.651-8.85,76.156,18.46l13.548,44.274l-33.53,19.079c0,0,0.545-11.417-60.199-34.748
		C278.32,111.64,278.938,77.204,282.236,60.651z"/>
</g>
<g>
	<path style="fill:#EF5350;" d="M123.826,185.005c10.41-41.548,5.985-49.995-8.497-54.018c-14.482-4.023,5.632-37.411-19.308-38.215
		c-24.94-0.805-46.792,55.048-22.189,103.753L123.826,185.005z"/>
	<path style="fill:#EF5350;" d="M388.171,185.005c-10.41-41.548-5.985-49.995,8.497-54.018c14.482-4.023-5.632-37.411,19.308-38.215
		c24.94-0.805,46.792,55.048,22.189,103.753L388.171,185.005z"/>
</g>
<g>
	<path style="fill:#D44A47;" d="M140.026,203.466c-30.731-52.767-88.501-12.764-62.633,25.965l49.199-3.509L140.026,203.466z"/>
	<path style="fill:#D44A47;" d="M371.971,203.466c30.731-52.767,88.501-12.764,62.633,25.965l-49.199-3.509L371.971,203.466z"/>
</g>
<path style="fill:#EF5350;" d="M431.933,364.715c7.003,2.415,12.102,6.178,12.688,14.068c0.715,9.636-3.425,18.883-7.141,27.525
	c-2.888,6.718-3.616,14.823,4.52,18.267c5.425,2.297,11.659-0.01,14.385-5.104c10.125-18.913,20.787-44.121,8.16-64.452
	c-5.368-8.643-14.298-14.293-23.655-17.801c-7.548-2.829-15.959,0.996-18.789,8.543c-1.77,4.721-0.937,10.138,2.165,14.113
	C426.393,362.601,429.102,363.74,431.933,364.715z"/>
<path style="fill:#D44A47;" d="M434.325,367.901c5.033-0.321,9.882-2.834,13.016-7.276c5.496-7.79,3.637-18.558-4.152-24.053
	c-10.419-7.352-28.023-13.532-53.822-18.892c-17.899-3.72-33.071-5.618-33.708-5.697c-9.453-1.173-18.078,5.545-19.251,15.006
	c-1.173,9.46,5.546,18.079,15.006,19.252c22.992,2.86,60.49,10.503,71.876,18.535C426.634,367.138,430.532,368.143,434.325,367.901z
	"/>
<path style="fill:#EF5350;" d="M372.998,411.761c6.626,3.312,11.188,7.71,10.735,15.608c-0.553,9.646-5.87,18.271-10.685,26.352
	c-3.744,6.282-5.527,14.222,2.088,18.702c5.077,2.988,11.56,1.518,14.931-3.175c12.515-17.424,26.388-41.017,16.533-62.828
	c-4.189-9.271-12.302-16.042-21.119-20.747c-7.112-3.794-15.952-1.104-19.746,6.008c-2.373,4.448-2.257,9.928,0.297,14.275
	C367.783,408.938,370.319,410.422,372.998,411.761z"/>
<path style="fill:#D44A47;" d="M374.952,415.232c5.032,0.341,10.168-1.515,13.857-5.508c6.469-7.002,6.037-17.921-0.965-24.39
	c-9.366-8.653-26.009-17.086-50.883-25.78c-17.257-6.033-32.05-9.903-32.671-10.065c-9.217-2.402-18.649,3.129-21.051,12.355
	c-2.402,9.225,3.129,18.649,12.354,21.052c22.419,5.848,58.593,18.337,68.828,27.792
	C367.427,413.469,371.16,414.975,374.952,415.232z"/>
<path style="fill:#EF5350;" d="M459.991,304.127c7.394-0.449,13.545,1.075,17.105,8.141c4.349,8.628,4.063,18.756,3.939,28.162
	c-0.097,7.312,2.333,15.079,11.168,15.147c5.891,0.046,10.768-4.472,11.337-10.222c2.114-21.348,2.318-48.717-17.13-62.667
	c-8.267-5.93-18.679-7.733-28.667-7.392c-8.056,0.275-14.364,7.028-14.089,15.084c0.172,5.039,3.015,9.725,7.402,12.21
	C454.063,304.293,457.002,304.308,459.991,304.127z"/>
<path style="fill:#D44A47;" d="M463.421,306.153c4.527-2.223,8.045-6.401,9.24-11.703c2.096-9.3-3.743-18.537-13.043-20.632
	c-12.439-2.804-31.069-1.775-56.955,3.147c-17.959,3.414-32.703,7.468-33.322,7.638c-9.182,2.534-14.579,12.043-12.043,21.231
	c2.537,9.188,12.043,14.581,21.231,12.043c22.336-6.158,59.904-13.449,73.497-10.386
	C456.023,308.392,460.009,307.828,463.421,306.153z"/>
<g>
	<path style="fill:#EF5350;" d="M80.064,364.715c-7.003,2.415-12.102,6.178-12.688,14.068c-0.715,9.636,3.425,18.883,7.141,27.525
		c2.888,6.718,3.616,14.823-4.52,18.267c-5.425,2.297-11.659-0.01-14.386-5.104c-10.125-18.913-20.787-44.121-8.16-64.452
		c5.368-8.643,14.298-14.293,23.655-17.801c7.548-2.829,15.959,0.996,18.789,8.543c1.77,4.721,0.937,10.138-2.165,14.113
		C85.604,362.601,82.895,363.74,80.064,364.715z"/>
	<path style="fill:#EF5350;" d="M138.999,411.761c-6.626,3.312-11.188,7.71-10.735,15.608c0.553,9.646,5.87,18.271,10.685,26.352
		c3.744,6.282,5.527,14.222-2.088,18.702c-5.077,2.988-11.56,1.518-14.93-3.175c-12.515-17.424-26.388-41.017-16.533-62.828
		c4.189-9.271,12.302-16.042,21.119-20.747c7.112-3.794,15.952-1.104,19.746,6.008c2.373,4.448,2.257,9.928-0.297,14.275
		C144.214,408.938,141.677,410.422,138.999,411.761z"/>
	<path style="fill:#EF5350;" d="M52.006,304.127c-7.394-0.449-13.545,1.075-17.105,8.141c-4.349,8.628-4.063,18.756-3.939,28.162
		c0.097,7.312-2.333,15.079-11.168,15.147c-5.891,0.046-10.768-4.472-11.337-10.222c-2.114-21.348-2.318-48.717,17.13-62.668
		c8.267-5.93,18.679-7.733,28.667-7.392c8.056,0.275,14.364,7.028,14.089,15.083c-0.172,5.039-3.015,9.725-7.402,12.21
		C57.933,304.293,54.994,304.308,52.006,304.127z"/>
</g>
<g>
	<path style="fill:#D44A47;" d="M77.671,367.901c-5.033-0.321-9.882-2.834-13.016-7.276c-5.496-7.79-3.637-18.558,4.152-24.053
		c10.419-7.352,28.023-13.532,53.822-18.892c17.899-3.72,33.071-5.618,33.708-5.697c9.453-1.173,18.078,5.545,19.251,15.006
		c1.173,9.46-5.546,18.079-15.005,19.252c-22.992,2.86-60.49,10.503-71.876,18.535C85.363,367.138,81.465,368.143,77.671,367.901z"
		/>
	<path style="fill:#D44A47;" d="M137.044,415.232c-5.032,0.341-10.168-1.515-13.857-5.508c-6.469-7.002-6.037-17.921,0.965-24.39
		c9.366-8.653,26.009-17.086,50.883-25.78c17.257-6.033,32.05-9.903,32.671-10.065c9.217-2.402,18.649,3.129,21.051,12.355
		c2.402,9.225-3.129,18.649-12.354,21.052c-22.419,5.848-58.593,18.337-68.828,27.792
		C144.569,413.469,140.836,414.975,137.044,415.232z"/>
	<path style="fill:#D44A47;" d="M48.576,306.153c-4.527-2.223-8.045-6.401-9.24-11.703c-2.096-9.3,3.743-18.537,13.043-20.632
		c12.439-2.804,31.069-1.775,56.955,3.147c17.959,3.414,32.703,7.468,33.322,7.638c9.182,2.534,14.58,12.043,12.043,21.231
		c-2.537,9.188-12.043,14.581-21.231,12.043c-22.336-6.158-59.904-13.449-73.497-10.386
		C55.973,308.392,51.988,307.828,48.576,306.153z"/>
</g>
<path style="fill:#EF5350;" d="M421.224,212.006c-11.775-7.337-31.086-12.461-62.336-6.658
	c-68.943,12.804-49.244-21.667-102.889-21.667s-33.947,34.471-102.889,21.667c-30.551-5.674-49.691-0.904-61.534,6.169
	c-12.428,7.421-18.347,22.232-14.623,36.22c10.349,38.867,43.341,140.801,104.72,140.801c71.647,0,74.258-9.748,74.328-10.825
	c0.07,1.077,2.68,10.825,74.328,10.825c61.386,0,94.378-101.959,104.723-140.815C438.682,234.074,433.211,219.475,421.224,212.006z"
	/>
<path d="M255.998,355.284c4.143,0,7.5-3.358,7.5-7.5V229.431c0-4.143-3.357-7.5-7.5-7.5c-4.143,0-7.5,3.357-7.5,7.5v118.352
	C248.498,351.925,251.856,355.284,255.998,355.284z"/>
<path d="M207.197,304.372c1.502,0,3.019-0.45,4.336-1.386c3.377-2.398,4.17-7.081,1.771-10.458
	c-0.172-0.243-17.261-24.655-17.261-55.215c0-4.142-3.357-7.5-7.5-7.5s-7.5,3.358-7.5,7.5c0,35.292,19.214,62.749,20.032,63.901
	C202.537,303.275,204.849,304.372,207.197,304.372z"/>
<path d="M111.639,245.487c-0.03-4.116-3.377-7.443-7.5-7.443c-4.143,0-7.5,3.357-7.5,7.5c0,0.599,0.125,14.816,10.993,26.628
	c1.479,1.607,3.497,2.422,5.521,2.422c1.815,0,3.635-0.654,5.076-1.98c3.048-2.805,3.246-7.549,0.441-10.597
	C111.949,254.71,111.646,245.77,111.639,245.487z"/>
<path d="M300.465,302.988c1.317,0.937,2.834,1.386,4.336,1.386c2.347,0,4.659-1.099,6.121-3.157
	c0.818-1.151,20.032-28.608,20.032-63.901c0-4.142-3.357-7.5-7.5-7.5c-4.143,0-7.5,3.358-7.5,7.5
	c0,30.376-17.096,54.981-17.261,55.215C296.295,295.907,297.088,300.589,300.465,302.988z"/>
<path d="M398.842,274.534c2.029-0.001,4.067-0.781,5.522-2.363c10.868-11.813,10.993-26.029,10.993-26.628
	c0-4.143-3.357-7.5-7.5-7.5c-4.143,0-7.5,3.357-7.5,7.5c0,0.088-0.191,9.037-7.032,16.471
	C388.981,266.74,392.454,274.536,398.842,274.534z"/>
<path d="M137.552,422.715c5.609-0.381,10.978-2.695,15.115-6.518c5.539-5.118,23.655-13.082,46.303-20.373
	c21.851-0.563,38.182-2.252,48.641-5.05c1.755-0.469,5.17-1.382,8.386-3.07c3.216,1.688,6.631,2.601,8.386,3.07
	c10.461,2.797,26.79,4.487,48.642,5.05c22.647,7.292,40.764,15.254,46.303,20.373c4.138,3.822,9.505,6.137,15.115,6.518
	c0.283,0.019,0.567,0.019,0.851,0.029c0.773,1.164,1.051,2.459,0.951,4.196c-0.432,7.507-4.88,14.963-9.182,22.172
	c-5.835,9.784-6.82,23.251,4.268,29.776c8.273,4.868,19.233,2.522,24.825-5.264c14.015-19.511,28.644-45.134,17.276-70.291
	c-3.456-7.647-9.276-14.342-17.302-19.924c-0.939-1.28-2.007-2.481-3.199-3.582c-2.959-2.734-6.492-5.392-10.653-8.026
	c3.259-3.277,6.386-6.796,9.376-10.523c18.781,4.607,25.314,8.221,27.307,9.628c4.822,3.403,10.821,4.98,16.69,4.403
	c0.915,1.052,1.358,2.298,1.487,4.03c0.629,8.468-3.298,16.441-6.551,24.008c-4.491,10.445-3.124,23.221,8.485,28.136
	c8.858,3.75,19.391-0.009,23.921-8.471c11.338-21.179,22.483-48.497,7.919-71.949c-4.428-7.129-11.075-13.005-19.764-17.487
	c-1.098-1.146-2.314-2.195-3.639-3.131c-7.005-4.944-16.649-9.296-29.312-13.223c0.057-0.123,0.114-0.245,0.171-0.368
	c10.338-1.694,19.029-2.586,25.294-2.586c3.572,0,5.623,0.293,6.713,0.539c5.732,1.292,11.925,0.448,17.104-2.321
	c1.249,0.622,2.135,1.604,2.917,3.155c3.383,6.712,3.264,15.389,3.148,23.78c-0.161,11.695,5.396,23.55,18.597,23.653
	c0.02,0,0.126,0,0.146,0c9.709,0,17.753-7.301,18.712-16.981c2.367-23.906,2.208-53.41-20.223-69.501
	c-6.804-4.881-15.188-7.741-24.904-8.563c-1.457-0.647-2.996-1.164-4.608-1.527c-5.114-1.153-10.918-1.713-17.742-1.713
	c-1.783,0-3.647,0.042-5.577,0.123c1.693-5.584,3.141-10.734,4.346-15.259c1.69-6.347,1.742-12.872,0.375-19.025
	c6.349-11.051,7.645-23.011,3.716-33.879c16.246-34.962,10.581-72.203-1.936-92.548c-6.496-10.558-14.804-17.002-23.721-18.552
	c-15.973-29.316-50.519-55.129-74.676-55.129c-1.646,0-3.254,0.119-4.78,0.354c-4.586,0.706-8.523,3.632-10.533,7.828
	c-2.016,4.21-1.824,9.132,0.513,13.166c2.548,4.397,6.559,12.249,8.807,21.291c-0.268-0.768-12.084,1.288-13.622,1.288
	c-7.061,0-18.33-7.891-30.148-21.107c-2.354-2.632-5.715-4.142-9.221-4.142c-5.909,0-11.035,4.201-12.188,9.989
	c-3.293,16.525-5.415,57.089,45.883,76.792c45.307,17.402,54.105,27.325,55.502,29.32c0.826,5.077,2.006,10.656,3.464,16.754
	c-4.158,3.595-8.308,8.286-12.228,14.374c-3.258,0.405-6.588,0.919-9.984,1.55c-2.542,0.472-4.971,0.879-7.302,1.228
	c-0.235-4.624-0.911-9.254-1.69-13.31c2.747-2.681,4.458-6.419,4.458-10.562c0-8.155-6.611-14.765-14.766-14.765
	s-14.765,6.61-14.765,14.765c0,6.667,4.42,12.296,10.488,14.131c0.665,3.599,1.197,7.509,1.336,11.188
	c-0.982,0.032-1.945,0.05-2.884,0.05c-15.831,0-22.108-4.451-30.056-10.086c-9.542-6.766-20.355-14.434-46.34-14.434
	c-25.985,0-36.801,7.668-46.343,14.433c-7.949,5.635-14.228,10.086-30.06,10.087c-0.935,0-1.895-0.019-2.874-0.05
	c0.142-3.675,0.675-7.587,1.341-11.19c6.064-1.836,10.481-7.465,10.481-14.129c0-8.155-6.611-14.765-14.765-14.765
	c-8.155,0-14.766,6.61-14.766,14.765c0,4.142,1.711,7.88,4.458,10.562c-0.779,4.055-1.455,8.686-1.69,13.31
	c-2.331-0.348-4.76-0.755-7.302-1.228c-3.396-0.631-6.726-1.145-9.984-1.55c-3.92-6.087-8.07-10.778-12.228-14.373
	c1.458-6.099,2.637-11.679,3.463-16.754c1.397-1.995,10.195-11.918,55.502-29.32c51.296-19.702,49.176-60.267,45.884-76.791
	c-1.153-5.789-6.279-9.99-12.188-9.99c-3.507,0-6.868,1.51-9.222,4.142c-11.818,13.217-23.088,21.107-30.148,21.107
	c-0.185,0-0.369-0.006-0.552-0.018c-2.374-0.155-4.96-0.431-7.698-0.723c-1.716-0.183-3.513-0.373-5.373-0.546
	c2.248-9.044,6.26-16.895,8.808-21.293c2.336-4.033,2.527-8.955,0.512-13.166c-2.01-4.196-5.947-7.122-10.533-7.828
	c-1.526-0.235-3.135-0.354-4.78-0.354c-24.155,0-58.7,25.812-74.674,55.127c-8.933,1.547-17.224,7.993-23.723,18.555
	c-12.517,20.345-18.182,57.586-1.936,92.548c-3.931,10.876-2.631,22.845,3.729,33.903c-1.375,6.145-1.327,12.659,0.366,19.015
	c1.204,4.522,2.651,9.667,4.343,15.245c-1.929-0.08-3.793-0.123-5.577-0.123c-6.825,0-12.629,0.561-17.742,1.713
	c-1.613,0.363-3.152,0.88-4.608,1.527c-9.718,0.822-18.1,3.683-24.903,8.563c-22.433,16.09-22.591,45.594-20.223,69.499
	c0.957,9.682,9.001,16.983,18.711,16.983c0.02,0,0.127,0,0.145,0c9.439,0,15.92-7.363,17.9-16.091
	c2.356-10.382-1.175-21.381,3.846-31.342c0.782-1.551,1.668-2.533,2.916-3.154c0.251,0.134,0.5,0.272,0.757,0.398
	c5.022,2.465,10.873,3.157,16.349,1.922c1.09-0.246,3.14-0.539,6.712-0.539c6.266,0,14.958,0.893,25.296,2.586
	c0.057,0.123,0.114,0.245,0.171,0.367c-12.664,3.926-22.308,8.279-29.312,13.223c-1.326,0.936-2.542,1.985-3.64,3.131
	c-8.69,4.482-15.336,10.358-19.764,17.487c-14.565,23.451-3.419,50.768,7.919,71.949c7.032,13.136,27.935,13.243,33.715-1.141
	c2.104-5.235,1.651-11.642-1.308-18.524c-3.228-7.492-7.174-15.628-6.552-24.007c0.129-1.733,0.572-2.98,1.488-4.032
	c0.284,0.028,0.566,0.06,0.852,0.078c5.614,0.355,11.242-1.237,15.837-4.481c1.994-1.407,8.528-5.021,27.309-9.629
	c2.99,3.727,6.117,7.247,9.376,10.523c-4.16,2.634-7.693,5.292-10.653,8.026c-1.192,1.102-2.26,2.302-3.199,3.583
	c-8.026,5.581-13.846,12.277-17.302,19.924c-11.367,25.157,3.262,50.779,17.276,70.292c3.531,4.916,9.262,7.852,15.329,7.852
	c8.05,0,15.916-5.481,17.945-13.399c3.88-15.141-12.526-26.513-13.363-41.138c-0.099-1.737,0.178-3.032,0.95-4.196
	C136.985,422.734,137.269,422.734,137.552,422.715z M383.975,464.874c-1.107,1.541-3.37,2.066-5.036,1.086
	c-3.475-2.046-0.413-6.782,1.008-9.163c4.984-8.354,10.633-17.821,11.274-28.998c0.191-3.335-0.243-6.417-1.299-9.23
	c0.068-0.045,0.133-0.096,0.2-0.143c2.695-1.852,5.001-4.222,6.793-6.958c0.011-0.017,0.022-0.034,0.032-0.05
	c0.754-1.166,1.41-2.384,1.953-3.649c0.312,0.573,0.6,1.153,0.865,1.74C407.972,427.67,395.637,448.637,383.975,464.874z
	 M370.379,382.142c5.141,2.934,9.292,5.852,12.376,8.702c8.888,8.212-4.116,22.772-13.247,14.337
	c-4.403-4.069-12.182-8.224-20.653-11.973c0.013-0.004,0.025-0.009,0.038-0.013c7.349-2.306,14.156-5.87,20.432-10.313
	C369.676,382.635,370.029,382.398,370.379,382.142z M449.773,415.933c-1.224,2.285-4.983,2.858-6.374,0.421
	c-1.422-2.491,0.327-5.587,1.325-7.906c3.846-8.933,8.204-19.057,7.376-30.22c-0.248-3.328-1.082-6.324-2.494-8.973
	c-0.337-0.672,3.016-4.229,3.426-4.756c0.769-0.99,5.02-5.807,4.056-7.133c0.384,0.528,0.747,1.065,1.086,1.612
	C468.689,375.906,459.208,398.308,449.773,415.933z M411.407,330.836c12.196,3.619,21.416,7.602,27.458,11.866
	c4.644,3.277,5.464,10.043,1.665,14.257c-3.259,3.615-8.873,4.547-12.919,1.692c-5.02-3.542-13.903-7.037-26.475-10.425
	c2.939-4.48,5.812-9.288,8.614-14.364C409.935,333.528,411.314,330.809,411.407,330.836z M492.261,348.076
	c-4.183-0.164-3.765-5.483-3.714-8.447c0.133-9.724,0.284-20.744-4.753-30.738c-1.502-2.98-3.42-5.428-5.738-7.335
	c0.835-1.709,1.482-3.525,1.913-5.427c0.002-0.01,0.005-0.02,0.008-0.032c0.617-2.744,0.764-5.608,0.425-8.4
	c0.562,0.343,1.107,0.705,1.636,1.083c16.192,11.616,16.008,35.94,14.038,55.834c-0.191,1.941-1.854,3.461-3.785,3.461
	 M457.969,281.134c11.745,2.647,8.009,21.816-4.292,19.041c-2.705-0.609-5.979-0.906-10.012-0.906
	c-5.588,0-12.068,0.593-18.265,1.393c2.829-6.999,5.361-13.876,7.607-20.43C443.391,279.422,451.741,279.73,457.969,281.134z
	 M425.189,205.641c-11.092-6.911-24.292-9.792-37.235-10.224c-0.175-0.006-0.347-0.017-0.523-0.022
	c4.18-4.137,9.276-7.499,15.019-8.963c11.307-2.881,23.752,2.55,28.862,13.163c1.979,4.094,2.681,8.48,2.094,12.957
	C431.032,209.906,428.283,207.568,425.189,205.641z M346.054,45.517c15.842,0,43.52,18.348,58.708,42.492
	c-0.044-0.07-2.332,1.544-2.457,1.645c-0.069,0.043-0.904-0.656-0.989-0.718c-13.357-9.803-29.012-15.711-45.615-16.343
	c-0.127-0.005-0.252-0.016-0.379-0.02c-2.206-10.763-6.602-20.264-10.401-27.019C345.289,45.529,345.667,45.517,346.054,45.517z
	 M326.144,121.975c-16.014-6.151-41.36-21.282-37.379-54.683c17.395,18.187,29.997,22.152,37.674,22.152
	c11.945,0,23.573-3.01,35.563-1.185c10.963,1.668,21.389,6.156,30.331,12.683c1.002,0.732,1.988,1.485,2.96,2.257
	c-0.002,0.014-0.003,0.028-0.005,0.042c-0.514,3.724-0.411,7.495-0.297,11.242c0.09,2.938,0.237,7.761-0.447,9.312
	c-5.91,1.655-10.831,4.104-14.256,8.425c-2.806,3.426-4.416,7.712-5.052,12.942C364.371,138.109,347.978,130.361,326.144,121.975z
	 M391.048,162.961c-1.454-8.787-3.562-21.69,7.568-24.732c0.02-0.005,0.039-0.011,0.059-0.016
	c11.944-3.318,11.562-15.876,11.309-24.187c-0.006-0.186-0.011-0.372-0.016-0.558c-0.162-5.479-1.423-13.2,6.251-13.2l0.29-0.004
	c5.026,0,10.555,4.299,15.165,11.796c9.43,15.327,14.081,42.384,4.708,69.482c-6.241-5.904-14.299-9.68-23.037-10.655
	c-6.827-0.762-13.778,0.255-20.143,2.822C392.429,170.21,391.65,166.601,391.048,162.961z M168.62,215.141
	c0.104,0.012,0.209,0.022,0.315,0.03c18.525,1.695,34.221-1.566,49.394-12.322c8.466-6.001,16.461-11.67,37.669-11.67
	c21.206,0,29.2,5.668,37.664,11.669c8.495,6.023,18.122,12.85,38.732,12.85c25.605,0,51.296-10.84,76.464-1.405
	c13.12,4.918,22.825,16.911,18.941,31.5c-6.567,24.667-27.369,92.722-63.107,121.791c-13.712,11.153-31.431,13.67-48.828,13.303
	c-40.296-0.879-50.971-5.359-53.212-6.636c-1.255-2.41-3.774-4.038-6.654-4.038s-5.399,1.628-6.654,4.038
	c-2.242,1.277-12.918,5.758-53.22,6.636c-70.747,1.542-96.953-78.839-111.925-135.081c-5.368-20.163,13.085-31.639,30.185-34.422
	C132.665,208.41,150.516,213.444,168.62,215.141z M184.03,89.395c15.356,1.009,29.452-11.91,39.203-22.103
	c3.979,33.401-21.366,48.533-37.38,54.684c-21.838,8.389-38.237,16.139-49.101,23.191c-1.265-10.335-6.34-16.983-16.937-20.633
	c-0.028-0.009-0.053-0.02-0.081-0.029c-0.716-0.245-1.455-0.479-2.222-0.696c-0.02-0.006-0.039-0.013-0.059-0.019
	c-0.023-0.051-0.042-0.116-0.063-0.174c-0.607-1.708-0.469-6.294-0.383-9.133c0.115-3.743,0.215-7.519-0.296-11.238
	c-0.003-0.021-0.005-0.042-0.008-0.063c0.287-0.23,0.58-0.46,0.873-0.69c11.917-9.339,26.99-14.973,42.194-14.973
	C167.895,87.519,175.937,88.863,184.03,89.395z M165.943,45.517c0.387,0,0.765,0.012,1.133,0.035
	c-3.801,6.756-8.195,16.256-10.401,27.019c-0.127,0.004-0.252,0.015-0.379,0.02c-8,0.305-15.958,1.743-23.507,4.426
	c-7.934,2.82-15.391,6.986-22.17,11.962c-0.166,0.122-0.817,0.754-1.03,0.598c-0.569-0.417-1.134-0.824-1.738-1.192
	c-0.206-0.125-0.401-0.257-0.616-0.377C122.422,63.867,150.1,45.517,165.943,45.517z M80.323,112.06
	c2.559-4.16,5.904-8.556,10.494-10.673c4.274-1.97,10.446-1.473,11.073,4.209c0.007,0.058,0.013,0.118,0.019,0.176
	c1.207,10.728-2.976,26.291,9.722,31.797c0.759,0.329,1.538,0.575,2.326,0.82c0.013,0.004,0.025,0.007,0.037,0.011
	c4.238,1.2,7.819,2.648,8.055,11.648c0.109,4.137-0.742,8.294-1.132,12.403c-0.358,3.774-1.305,7.561-2.123,11.259
	c-14.576-5.879-31.685-3.041-43.18,7.832C66.243,154.443,70.893,127.387,80.323,112.06z M78.593,212.593
	c-0.597-4.491,0.104-8.893,2.09-13c7.092-14.67,26.068-17.537,38.824-8.458c0.029,0.021,0.06,0.035,0.089,0.055
	c1.705,1.212,3.364,2.615,4.968,4.203c-0.2,0.006-0.396,0.019-0.596,0.026c-9.48,0.339-18.986,1.945-27.815,5.495
	c-5.821,2.341-11.358,5.503-15.856,9.92c-0.474,0.468-0.94,0.943-1.388,1.432C78.806,212.378,78.694,212.48,78.593,212.593z
	 M19.705,348.076c-1.931,0-3.593-1.52-3.784-3.461c-1.972-19.893-2.157-44.218,14.039-55.834c0.528-0.379,1.072-0.739,1.634-1.083
	c-0.161,1.332-0.212,2.688-0.151,4.056c0.003,0.072,0.006,0.145,0.01,0.217c0.168,3.318,1.03,6.602,2.487,9.586
	c-2.318,1.907-4.236,4.355-5.737,7.335c-5.038,9.994-4.887,21.014-4.754,30.738c0.038,2.822,0.413,8.416-3.714,8.448 M68.33,299.27
	c-4.031,0-7.306,0.297-10.011,0.906c-8.365,1.884-15.025-7.823-10.252-14.934c0.033-0.049,0.068-0.097,0.102-0.146
	c1.367-1.966,3.518-3.434,5.857-3.961c6.229-1.404,14.582-1.712,24.963-0.902c2.246,6.555,4.777,13.432,7.607,20.43
	C80.398,299.863,73.919,299.27,68.33,299.27z M67.272,408.448c1.117,2.595,3.59,7.617-0.199,9.223
	c-1.782,0.756-3.955-0.066-4.85-1.737c-9.436-17.624-18.916-40.026-8.401-56.956c0.34-0.547,0.702-1.084,1.086-1.612
	c0.374,1.33,0.867,2.627,1.465,3.886c0.004,0.009,0.009,0.019,0.013,0.028c0.413,0.871,6.068,7.855,6.004,7.975
	c-1.412,2.65-2.246,5.646-2.494,8.975C59.069,389.39,63.426,399.514,67.272,408.448z M110.861,348.225
	c-12.572,3.388-21.455,6.883-26.476,10.425c-6.748,4.761-16.239-0.963-15.306-9.125c0.002-0.017,0.004-0.035,0.006-0.052
	c0.341-2.655,1.857-5.228,4.048-6.773c6.041-4.263,15.261-8.246,27.457-11.865c0.375,0.703,0.757,1.381,1.135,2.074
	C104.574,338.127,107.599,343.253,110.861,348.225z M141.617,382.142c0.36,0.263,0.724,0.507,1.086,0.762
	c6.134,4.333,13.082,8.003,20.37,10.281c0.023,0.007,0.046,0.016,0.069,0.023c-8.471,3.749-16.249,7.904-20.652,11.971
	c-8.855,8.18-22.596-5.7-13.248-14.336C132.327,387.993,136.478,385.076,141.617,382.142z M134.502,464.327
	c-0.909,2.773-4.977,2.639-6.48,0.547c-11.663-16.236-23.996-37.202-15.789-55.364c0.265-0.586,0.553-1.167,0.865-1.74
	c0.543,1.265,1.199,2.483,1.954,3.649c0.01,0.016,0.021,0.033,0.031,0.049c1.785,2.741,4.095,5.117,6.797,6.962
	c0.066,0.045,0.129,0.095,0.195,0.139c-1.055,2.813-1.49,5.896-1.298,9.23c0.64,11.176,6.289,20.644,11.273,28.998
	C133.223,458.762,135.294,461.912,134.502,464.327z"/>
<g>
</g>
<g>
</g>
<g>
</g>
<g>
</g>
<g>
</g>
<g>
</g>
<g>
</g>
<g>
</g>
<g>
</g>
<g>
</g>
<g>
</g>
<g>
</g>
<g>
</g>
<g>
</g>
<g>
</g>
</svg>
