<?xml version="1.0" encoding="iso-8859-1"?>
<!-- Generator: Adobe Illustrator 19.0.0, SVG Export Plug-In . SVG Version: 6.00 Build 0)  -->
<svg version="1.1" id="Capa_1" xmlns="http://www.w3.org/2000/svg" xmlns:xlink="http://www.w3.org/1999/xlink" x="0px" y="0px"
	 viewBox="0 0 479.994 479.994" style="enable-background:new 0 0 479.994 479.994;" xml:space="preserve">
<g>
	<path style="fill:#F76869;" d="M415.994,99.997H377.33v-16h38.664c8.837,0,16-7.163,16-16s-7.163-16-16-16h-136v-16h136
		c17.673,0,32,14.327,32,32S433.667,99.997,415.994,99.997z"/>
	<path style="fill:#F76869;" d="M415.994,131.997h-51v-16h51c26.51,0,48-21.49,48-48s-21.49-48-48-48h-136v-16h136
		c35.346,0,64,28.654,64,64S451.34,131.997,415.994,131.997z"/>
	<path style="fill:#F76869;" d="M303.994,403.997h40c35.346,0,64,28.654,64,64l0,0h-40
		C332.648,467.997,303.994,439.343,303.994,403.997L303.994,403.997z"/>
	<path style="fill:#F76869;" d="M367.994,339.997h40l0,0c0,35.346-28.654,64-64,64h-40l0,0
		C303.994,368.651,332.648,339.997,367.994,339.997z"/>
	<path style="fill:#F76869;" d="M199.994,75.997h184c0.027,88.339-71.565,159.973-159.904,160c-0.032,0-0.064,0-0.096,0
		c-7.525,0.006-14.975,1.501-21.92,4.4l-2.08-4.4V75.997z"/>
	<path style="fill:#F76869;" d="M303.994,387.997v40h-112l7.76-77.6c2.856,1.531,5.824,2.842,8.88,3.92L303.994,387.997z"/>
</g>
<g>
	<path style="fill:#D95354;" d="M199.994,235.997l2.08,4.4c-9.953,4.298-18.474,11.348-24.56,20.32l-1.52-0.72l-134.72-110.96
		c33.033-45.912,86.16-73.1,142.72-73.04h16V235.997z"/>
	<path style="fill:#D95354;" d="M199.754,350.397l-7.76,77.6h-3.76c-53.621,0.005-104.529-23.577-139.2-64.48l118.96-55.52
		l1.04-0.24C172.278,325.894,183.577,341.578,199.754,350.397L199.754,350.397z"/>
</g>
<path style="fill:#F76869;" d="M175.994,259.997l1.52,0.72c-6.239,9.236-9.555,20.135-9.52,31.28v4.88
	c-0.019,3.652,0.33,7.297,1.04,10.88l-1.04,0.24l-118.96,55.52c-25.132-29.41-39.568-66.46-40.96-105.12
	c-1.45-39.137,10.237-77.634,33.2-109.36L175.994,259.997z"/>
<path style="fill:#454545;" d="M247.994,107.997h16v16h-16V107.997z"/>
<path d="M247.994,107.997h16v16h-16V107.997z"/>
<path d="M479.994,67.997c-0.04-35.33-28.67-63.96-64-64h-136v16h136c26.51,0,48,21.49,48,48s-21.49,48-48,48h-29.016
	c1.291-5.248,2.323-10.581,3.096-16h25.92c17.673,0,32-14.327,32-32s-14.327-32-32-32h-136v16h136c8.837,0,16,7.163,16,16
	s-7.163,16-16,16h-24.408c0.128-2.672,0.408-5.296,0.408-8c0-4.418-3.582-8-8-8h-200C82.374,68-0.003,150.383,0,252.003
	c0,2.233,0.041,4.466,0.122,6.698c3.472,97.76,87.872,177.296,188.088,177.296h115.384c12.141,24.47,37.083,39.963,64.4,40h40
	c4.418,0,8-3.582,8-8c-0.036-26.995-15.169-51.702-39.2-64c24.031-12.298,39.164-37.005,39.2-64c0-4.418-3.582-8-8-8h-40
	c-29.848,0.058-56.57,18.509-67.2,46.4l-89.504-31.6c-21.136-7.49-35.271-27.472-35.296-49.896v-4.904
	c0.026-26.499,21.501-47.974,48-48c73.058-0.105,137.701-47.34,160-116.912v4.912h32
	C451.324,131.957,479.955,103.327,479.994,67.997L479.994,67.997z M42.922,160.797l124.104,102.176
	c-4.617,8.978-7.028,18.928-7.032,29.024v4.904c0,1.96,0.288,3.864,0.456,5.784l-108.76,50.76
	c-21.714-27.167-34.181-60.561-35.584-95.312C14.774,223.697,24.142,189.693,42.922,160.797L42.922,160.797z M399.426,459.997
	h-31.432c-27.826-0.035-51.419-20.465-55.432-48h31.432C371.82,412.032,395.414,432.462,399.426,459.997z M367.994,347.997h31.432
	c-4.013,27.535-27.606,47.965-55.432,48h-31.432C316.575,368.462,340.168,348.032,367.994,347.997z M295.994,393.661v26.336h-95.16
	l5.792-57.88L295.994,393.661z M191.314,354.397l-6.52,65.432c-46.258-1.002-90.216-20.368-122.176-53.824l101.04-47.16
	C168.64,333.456,178.378,345.974,191.314,354.397z M176.114,249.701L52.266,147.741c3.392-4.267,7.003-8.4,10.832-12.4
	c31.568-32.948,75.267-51.507,120.896-51.344h8v152h1.088c-6.408,3.567-12.157,8.205-17,13.712L176.114,249.701z M223.994,227.997
	c-5.401,0.019-10.778,0.726-16,2.104V83.997h167.792C371.433,164.679,304.793,227.898,223.994,227.997z"/>
<g>
</g>
<g>
</g>
<g>
</g>
<g>
</g>
<g>
</g>
<g>
</g>
<g>
</g>
<g>
</g>
<g>
</g>
<g>
</g>
<g>
</g>
<g>
</g>
<g>
</g>
<g>
</g>
<g>
</g>
</svg>
