<svg height="512" viewBox="0 0 60 55" width="512" xmlns="http://www.w3.org/2000/svg"><g id="Page-1" fill="none" fill-rule="evenodd"><g id="011---Fish" fill-rule="nonzero"><path id="Shape" d="m47.03 42.14c-1.4139327 1.479215-2.9096086 2.8780725-4.48 4.19-11.52 9.58-21.6 8.74-29 5.24 2.2349152-3.1963631 3.4387595-6.9998133 3.45-10.9-.0096487-3.903531-1.2135458-7.7106375-3.45-10.91.7923031-.3853823 1.6071137-.7226604 2.44-1.01v-.01c.9067061-.3239142 1.8316271-.5943785 2.77-.81 5.1573316-1.1711459 10.5583992-.5796339 15.34 1.68.24.1.47.21.71.33 1.0791926.5155538 2.1276153 1.093188 3.14 1.73 1.7330644 1.0757388 3.3812152 2.2825997 4.93 3.61 1.450418 1.2302433 2.8356356 2.535352 4.15 3.91.7602074.8364057.7602074 2.1135943 0 2.95z" fill="#02a9f4"/><path id="Shape" d="m47.03 39.19c-1.3143644-1.374648-2.699582-2.6797567-4.15-3.91-1.5487848-1.3274003-3.1969356-2.5342612-4.93-3.61-1.0123847-.636812-2.0608074-1.2144462-3.14-1.73-.24-.12-.47-.23-.71-.33-3.6792384-1.7127739-7.7301417-2.4727481-11.78-2.21 3.0369265.1952217 6.0125446.9442098 8.78 2.21.24.1.47.21.71.33 1.0791926.5155538 2.1276153 1.093188 3.14 1.73 1.7330644 1.0757388 3.3812152 2.2825997 4.93 3.61 1.450418 1.2302433 2.8356356 2.535352 4.15 3.91.7602074.8364057.7602074 2.1135943 0 2.95-1.4139327 1.479215-2.9096086 2.8780725-4.48 4.19-6.171 5.132-11.928 7.271-17.082 7.616 5.882.387 12.684-1.464 20.082-7.616 1.5703914-1.3119275 3.0660673-2.710785 4.48-4.19.7602074-.8364057.7602074-2.1135943 0-2.95z" fill="#0377bc"/><path id="Shape" d="m17 40.67c-.0112405 3.9001867-1.2150848 7.7036369-3.45 10.9-4.63169063-2.2967268-8.71951228-5.5560742-11.99-9.56-.62983567-.7860645-.62983567-1.9039355 0-2.69 2.45372551-2.9675073 5.33924517-5.5496429 8.56-7.66 1.1012077-.7065645 2.2469289-1.3412205 3.43-1.9 2.2364542 3.1993625 3.4403513 7.006469 3.45 10.91z" fill="#00bcd4"/><path id="Shape" d="m13.55 29.76c-.783.366-1.521.771-2.241 1.189 1.7568897 2.9385116 2.6866901 6.2973334 2.691 9.721-.0054539 3.4220255-.9363182 6.7788728-2.694 9.715.719.418 1.464.817 2.244 1.185 2.2349152-3.1963631 3.4387595-6.9998133 3.45-10.9-.0096487-3.903531-1.2135458-7.7106375-3.45-10.91z" fill="#00838f"/><path id="Shape" d="m59 50h-10c-2.88 0-5.1-1.99-6.45-3.67 1.5703914-1.3119275 3.0660673-2.710785 4.48-4.19.7602074-.8364057.7602074-2.1135943 0-2.95-1.3143644-1.374648-2.699582-2.6797567-4.15-3.91 1.37-1.59 3.46-3.28 6.12-3.28h10s0 7-5 9c5 2 5 9 5 9z" fill="#00bcd4"/><path id="Shape" d="m54 41c5-2 5-9 5-9h-3s0 7-5 9c5 2 5 9 5 9h3s0-7-5-9z" fill="#00838f"/><path id="Shape" d="m35 20.75v8.79l-.19.4c-.24-.12-.47-.23-.71-.33-4.7816008-2.2596339-10.1826684-2.8511459-15.34-1.68l-.03-.1c1.43-2.6 5.3-7.13 15.19-8.08.2787824-.0223758.5541957.0730176.7594132.2630338.2052174.1900161.3214833.4572887.3205868.7369662z" fill="#00bcd4"/><path id="Shape" d="m33.92 19.75c-.781.075-1.511.179-2.219.3.1884143.1846305.296243.4362307.3.7v8.016c.692.246 1.392.5273333 2.1.844.24.1.47.21.71.33l.19-.4v-8.79c.0009197-.2798661-.1154816-.5473108-.3209252-.7373604-.2054435-.1900495-.4811269-.2853104-.7600748-.2626396z" fill="#00838f"/><path id="Shape" d="m47.03 24.14c-1.4139327 1.479215-2.9096086 2.8780725-4.48 4.19-1.4537714 1.2189829-2.9908385 2.3350273-4.6 3.34-1.0123847-.636812-2.0608074-1.2144462-3.14-1.73l.19-.4v-8.79c.0008965-.2796775-.1153694-.5469501-.3205868-.7369662-.2052175-.1900162-.4806308-.2854096-.7594132-.2630338-9.89.95-13.76 5.48-15.19 8.08l.03.1c-.9383729.2156215-1.8632939.4860858-2.77.81.6708551-1.9533474 1.0121781-4.0046652 1.01-6.07-.0096487-3.903531-1.2135458-7.7106375-3.45-10.91 1.659902-.8014405 3.4040179-1.4152351 5.2-1.83h.01c5.1573316-1.17114586 10.5583992-.57963389 15.34 1.68.24.11.47.22.71.33 2.9063245 1.4292561 5.6182547 3.2237675 8.07 5.34 1.450418 1.2302433 2.8356356 2.535352 4.15 3.91.7602074.8364057.7602074 2.1135943 0 2.95z" fill="#3f51b5"/><path id="Shape" d="m31.7 20.046c-.202423-.2116837-.4889166-.3217324-.781-.3-8.362.8-12.412 4.163-14.331 6.754-.1533482.7570756-.3537367 1.5038569-.6 2.236.9067061-.3239142 1.8316271-.5943785 2.77-.81l-.03-.1c1.319-2.391 4.719-6.415 12.972-7.78z" fill="#283593"/><path id="Shape" d="m47.03 21.19c-1.3143644-1.374648-2.699582-2.6797567-4.15-3.91-2.4517453-2.1162325-5.1636755-3.9107439-8.07-5.34-.24-.11-.47-.22-.71-.33-3.6792384-1.71277385-7.7301417-2.47274807-11.78-2.21 3.0369265.19522165 6.0125446.9442098 8.78 2.21.24.11.47.22.71.33 2.9063245 1.4292561 5.6182547 3.2237675 8.07 5.34 1.450418 1.2302433 2.8356356 2.535352 4.15 3.91.7602074.8364057.7602074 2.1135943 0 2.95-1.4139327 1.479215-2.9096086 2.8780725-4.48 4.19-1.073.894-2.135 1.692-3.182 2.409.5213333.2873333 1.0486667.5976667 1.582.931 1.6091615-1.0049727 3.1462286-2.1210171 4.6-3.34 1.5703914-1.3119275 3.0660673-2.710785 4.48-4.19.7602074-.8364057.7602074-2.1135943 0-2.95z" fill="#283593"/><path id="Shape" d="m17 22.67c.0021781 2.0653348-.3391449 4.1166526-1.01 6.07v.01c-.8328863.2873396-1.6476969.6246177-2.44 1.01-1.1830711.5587795-2.3287923 1.1934355-3.43 1.9-3.22223764-2.1044557-6.10812236-4.6835467-8.56-7.65-.62983567-.7860645-.62983567-1.9039355 0-2.69 3.27285022-4.0015345 7.36011453-7.2604375 11.99-9.56 2.2364542 3.1993625 3.4403513 7.006469 3.45 10.91z" fill="#02a9f4"/><path id="Shape" d="m13.55 11.76c-.779.368-1.525.768-2.243 1.186 1.7579735 2.939245 2.6884773 6.299148 2.693 9.724.0021781 2.0653348-.3391449 4.1166526-1.01 6.07v.01c-.8328863.2873396-1.6476969.6246177-2.44 1.01-.633.295-1.242.614-1.832.945.452.324.917.644 1.4.955 1.1012077-.7065645 2.2469289-1.3412205 3.43-1.9.7923031-.3853823 1.6071137-.7226604 2.44-1.01v-.01c.6715351-1.953232 1.0135345-4.0045527 1.012-6.07-.0096487-3.903531-1.2135458-7.7106375-3.45-10.91z" fill="#0377bc"/><path id="Shape" d="m35 2.75v8.79l-.9.07c-4.7816008-2.25963389-10.1826684-2.85114586-15.34-1.68h-.01l-.02-.1c1.43-2.6 5.3-7.13 15.19-8.08.2787824-.02237575.5541957.07301764.7594132.26303378.2052174.19001613.3214833.45728869.3205868.73696622z" fill="#02a9f4"/><path id="Shape" d="m33.92 1.75c-.781.075-1.511.179-2.219.3.1884143.18463046.296243.43623073.3.7v8.016c.692.246 1.392.5273333 2.1.844l.9-.07v-8.79c.0009197-.27986613-.1154816-.54731083-.3209252-.73736039-.2054435-.19004956-.4811269-.2853104-.7600748-.26263961z" fill="#0377bc"/><path id="Shape" d="m59 32h-10c-2.88 0-5.1-1.99-6.45-3.67 1.5703914-1.3119275 3.0660673-2.710785 4.48-4.19.7602074-.8364057.7602074-2.1135943 0-2.95-1.3143644-1.374648-2.699582-2.6797567-4.15-3.91 1.37-1.59 3.46-3.28 6.12-3.28h10s0 7-5 9c5 2 5 9 5 9z" fill="#02a9f4"/><path id="Shape" d="m54 23c5-2 5-9 5-9h-3s0 7-5 9c5 2 5 9 5 9h3s0-7-5-9z" fill="#0377bc"/><g fill="#000"><circle id="Oval" cx="10" cy="37" r="1"/><circle id="Oval" cx="10" cy="19" r="1"/><path id="Shape" d="m20 33c-.545859.0005356-.9891562.4411543-.993.987-.0039982.5483181.4318501.998843.98 1.013.308.008 3.013.219 3.013 5 0 .5522847.4477153 1 1 1s1-.4477153 1-1c0-6.92-4.95-7-5-7z"/><path id="Shape" d="m25.447 31.1c-.4942949-.2468713-1.0951287-.0462949-1.342.448s-.0462949 1.0951287.448 1.342c.034.022 3.447 1.79 3.447 7.11 0 .5522847.4477153 1 1 1s1-.4477153 1-1c0-6.543-4.367-8.8-4.553-8.9z"/><path id="Shape" d="m60 14c0-.5522847-.4477153-1-1-1h-10c-2.3837346.0892777-4.628681 1.1440667-6.219 2.922-2.0989806-1.7257084-4.371503-3.2287703-6.781-4.485v-8.686c-.0010564-.56494367-.2394618-1.10344214-.657-1.484-.4132889-.37657113-.9664053-.56106433-1.523-.508-10.02.962-14.179 5.522-15.82 8.332-1.6816226.42418911-3.3167224 1.0151164-4.881 1.764-4.76716312 2.3570989-8.97288092 5.7099423-12.333 9.832-.92949127 1.1559977-.92949127 2.8030023 0 3.959 2.20679599 2.6540551 4.74752986 5.0116033 7.559 7.014-2.81284722 2.0027585-5.35199927 4.3644086-7.553 7.025-.93103898 1.157326-.93103898 2.806674 0 3.964 2.933 3.565 10.973 11.9 22.246 12.334.302.0113333.6043333.017.907.017 6.214 0 12.4-2.453 18.476-7.29 1.6323046 1.9736244 4.0207325 3.1680199 6.579 3.29h10c.5522847 0 1-.4477153 1-1 0-.278-.05-6.131-3.954-9 3.904-2.869 3.954-8.722 3.954-9s-.05-6.131-3.954-9c3.904-2.869 3.954-8.722 3.954-9zm-17.213 19.915c-1-.8133333-2.002-1.5616667-3.006-2.245.884-.6 1.768-1.256 2.644-1.955.8249683.9101542 1.7909748 1.6816764 2.861 2.285-.9212848.5140334-1.7630637 1.159094-2.499 1.915zm-.877-6.353c-1.2657645 1.0568012-2.5949067 2.0352903-3.98 2.93-.642-.384-1.2853333-.742-1.93-1.074v-8.667c-.0010564-.5649437-.2394618-1.1034421-.657-1.484-.4132889-.3765711-.9664053-.5610643-1.523-.508-1.3708643.1300009-2.7317654.3494688-4.074.657-.4396273-2.6320019-2.0113736-4.9388137-4.3-6.311-.4924675-.2437696-1.089365-.0445119-1.3366453.4462022-.2472804.4907142-.0522904 1.0890194.4366453 1.3397978 1.7761879 1.1211523 2.9705905 2.9655849 3.267 5.045-.9765058.3005018-1.9311074.6680418-2.857 1.1-.443-5.951-4.909-6.036-4.956-6.036-.545859.0005356-.9891562.4411543-.993.987-.0039982.5483181.4318501.998843.98 1.013.308.008 3.013.219 3.013 5 0 .031.015.056.017.086-2.0575912 1.2354088-3.7803607 2.9571481-5.017 5.014-.18.045-.362.087-.54.136.3579656-1.4956409.5392047-3.0281182.54-4.566-.0119413-3.6982795-1.0449047-7.3214377-2.985-10.47 1.2601405-.5404669 2.5651054-.9697669 3.9-1.283.022935-.0027881.045654-.0071314.068-.013 4.9429721-1.11473933 10.1166567-.5466899 14.7 1.614l.7.324c2.8280924 1.3940319 5.4678458 3.1413229 7.856 5.2 1.4226391 1.2071648 2.7814775 2.4875637 4.071 3.836.3886874.4504036.3886874 1.1175964 0 1.568-1.3893309 1.4524045-2.8582599 2.8265208-4.4 4.116zm-7.91-6.811v7.717c-3.4498165-1.5173327-7.1962761-2.2407893-10.963-2.117-.75.028-1.482.1-2.2.191 1.956-2.33 5.786-5.083 13.163-5.791zm0-18v7.74c-4.1319824-1.83323632-8.6857531-2.5046677-13.171-1.942 1.957-2.332 5.788-5.089 13.171-5.798zm-31.67 20.621c-.32736854-.4156095-.32736854-1.0013905 0-1.417 3.00386013-3.6468089 6.69255275-6.6703274 10.858-8.9 1.8229124 2.8767706 2.7975508 6.2093268 2.812 9.615-.0027389 1.8003946-.2809587 3.5897695-.825 5.306-1.7518318.6697533-3.4363429 1.5038056-5.031 2.491-2.92348004-1.9881537-5.55375207-4.376403-7.814-7.095zm0 18.006c-.32797369-.4176397-.32797369-1.0053603 0-1.423 2.99544471-3.6536497 6.6842991-6.6784151 10.854-8.9 1.8257177 2.875716 2.8018718 6.2087135 2.816 9.615-.0130836 3.4039937-.9878751 6.7349936-2.812 9.609-4.16912296-2.2224514-7.85755139-5.2474861-10.853-8.901zm20.784 11.606c-2.7901413-.1228626-5.5347306-.7517463-8.1-1.856 1.9406231-3.1439704 2.9740399-6.7633518 2.986-10.458-.0101022-3.6964162-1.0417565-7.3181079-2.981-10.465 2.5636193-1.1028705 5.3059865-1.7317108 8.094-1.856.276-.01.551-.016.827-.016 7.479 0 15 3.884 22.365 11.554.3914242.4463399.3914242 1.1136601 0 1.56-7.636 7.953-15.442 11.833-23.191 11.537zm30.666-12.984h-1.78c-.5522847 0-1 .4477153-1 1s.4477153 1 1 1h1.78c3.122 1.362 3.937 5.171 4.147 7h-8.927c-1.9622896-.1244089-3.7855822-1.0554211-5.037-2.572 1.267-1.1 2.529-2.289 3.784-3.6 1.1457337-1.2159594 1.1457337-3.1140406 0-4.33-1.138-1.185-2.281-2.275-3.429-3.288 1.2111979-1.3211544 2.8922087-2.114626 4.682-2.21h8.93c-.205 1.826-1.013 5.633-4.15 7zm0-18h-1.78c-.5522847 0-1 .4477153-1 1s.4477153 1 1 1h1.78c3.122 1.362 3.937 5.171 4.147 7h-8.927c-1.96021-.1246006-3.7817118-1.0539899-5.033-2.568 1.256-1.088 2.525-2.291 3.788-3.6 1.1350191-1.220577 1.1350191-3.110423 0-4.331-1.119-1.167-2.274-2.253-3.439-3.279 1.210386-1.3251023 2.8920459-2.1228495 4.684-2.222h8.93c-.205 1.826-1.013 5.633-4.15 7z"/></g></g></g></svg>