<svg id="Capa_1" enable-background="new 0 0 512 512" height="512" viewBox="0 0 512 512" width="512" xmlns="http://www.w3.org/2000/svg"><g><path d="m504.5 190.862v122.294c0 4.418-3.582 8-8 8h-240.5v132.839c0 2.218-1.807 4.024-4.024 4.005-135.388-1.184-244.476-61.994-244.476-136.844v-130.294c0-75.591 111.257-136.862 248.5-136.862 115.409 0 212.449 43.33 240.398 102.073 5.292 11.104 8.102 22.771 8.102 34.789z" fill="#ff4b22"/><g fill="#ef4722"><path d="m226 453.995c0 1.163-.505 2.205-1.298 2.938 8.953.62 18.05.987 27.273 1.067 2.218.019 4.024-1.787 4.024-4.005v-132.839h-30v132.839z"/><path d="m496.398 156.073c-27.949-58.743-124.989-102.073-240.398-102.073-5.012 0-9.985.091-14.924.253 108.712 3.584 198.599 45.654 225.322 101.821 5.292 11.103 8.102 22.771 8.102 34.788v122.294c0 4.418-3.582 8-8 8h30c4.418 0 8-3.582 8-8v-122.295c0-12.017-2.81-23.684-8.102-34.788z"/></g><path d="m504.5 190.862v122.294c0 4.418-3.582 8-8 8h-240.5v-155.082c0-5.523 4.477-10 10-10h230.398c5.292 11.103 8.102 22.77 8.102 34.788z" fill="#ffd740"/><path d="m496.398 156.073h-30c5.292 11.103 8.102 22.771 8.102 34.788v122.294c0 4.418-3.582 8-8 8h30c4.418 0 8-3.582 8-8v-122.294c0-12.017-2.81-23.684-8.102-34.788z" fill="#ffc400"/><g fill="#ff9800"><circle cx="323.732" cy="208.996" r="20"/><circle cx="374.886" cy="271.004" r="20"/><circle cx="431.637" cy="218.366" r="20"/></g><g><path d="m256 376.418c-4.143 0-7.5 3.358-7.5 7.5v66.537c-129.081-2.147-233.5-59.755-233.5-129.299v-130.295c0-37.379 30.62-73.044 84.008-97.851 3.757-1.746 5.387-6.206 3.642-9.962s-6.206-5.387-9.962-3.642c-58.905 27.371-92.688 67.994-92.688 111.455v130.294c0 39.01 26.745 75.445 75.308 102.593 47.116 26.339 109.834 41.167 176.604 41.75h.102c6.293 0 11.487-5.101 11.487-11.505v-70.077c-.001-4.14-3.358-7.498-7.501-7.498z"/><path d="m411.965 76.12c-44.97-19.377-98.902-29.62-155.965-29.62-47.13 0-93.153 7.203-133.097 20.83-3.92 1.337-6.014 5.6-4.677 9.52 1.338 3.921 5.601 6.013 9.521 4.677 38.401-13.102 82.751-20.027 128.253-20.027 55.039 0 106.918 9.819 150.028 28.396 35.539 15.314 62.561 35.858 77.53 58.678h-217.558c-9.649 0-17.5 7.851-17.5 17.5v185.891c0 4.142 3.357 7.5 7.5 7.5s7.5-3.358 7.5-7.5v-23.309h184.551c4.143 0 7.5-3.358 7.5-7.5s-3.357-7.5-7.5-7.5h-184.551v-147.582c0-1.379 1.121-2.5 2.5-2.5h225.518c3.641 8.926 5.482 18.084 5.482 27.288v122.294c0 .276-.225.5-.5.5h-16.356c-4.143 0-7.5 3.358-7.5 7.5s3.357 7.5 7.5 7.5h16.356c8.547 0 15.5-6.954 15.5-15.5v-122.295c0-53.917-50.284-93.302-100.035-114.741z"/><path d="m323.732 181.496c-15.163 0-27.5 12.336-27.5 27.5s12.337 27.5 27.5 27.5 27.5-12.336 27.5-27.5-12.336-27.5-27.5-27.5zm0 40c-6.893 0-12.5-5.607-12.5-12.5s5.607-12.5 12.5-12.5 12.5 5.607 12.5 12.5-5.607 12.5-12.5 12.5z"/><path d="m374.887 298.504c15.163 0 27.5-12.336 27.5-27.5s-12.337-27.5-27.5-27.5-27.5 12.336-27.5 27.5 12.337 27.5 27.5 27.5zm0-40c6.893 0 12.5 5.607 12.5 12.5s-5.607 12.5-12.5 12.5-12.5-5.607-12.5-12.5 5.607-12.5 12.5-12.5z"/><path d="m404.137 218.366c0 15.164 12.337 27.5 27.5 27.5s27.5-12.336 27.5-27.5-12.337-27.5-27.5-27.5-27.5 12.337-27.5 27.5zm40 0c0 6.893-5.607 12.5-12.5 12.5s-12.5-5.607-12.5-12.5 5.607-12.5 12.5-12.5 12.5 5.608 12.5 12.5z"/></g></g></svg>