<?xml version="1.0" encoding="iso-8859-1"?>
<!-- Generator: Adobe Illustrator 19.0.0, SVG Export Plug-In . SVG Version: 6.00 Build 0)  -->
<svg version="1.1" id="Capa_1" xmlns="http://www.w3.org/2000/svg" xmlns:xlink="http://www.w3.org/1999/xlink" x="0px" y="0px"
	 viewBox="0 0 512 512" style="enable-background:new 0 0 512 512;" xml:space="preserve">
<g>
	<path style="fill:#987866;" d="M27.122,304.884l-8.561,31.951L10,368.786c23.007,6.164,45.491-3.143,50.219-20.789
		C64.946,330.353,50.128,311.049,27.122,304.884z"/>
	<path style="fill:#FF4060;" d="M141.951,300.809c-35.599-9.539-72.193,11.588-81.732,47.188
		c-9.538,35.599,11.589,72.193,47.189,81.731c85.435,22.892,172.066,8.984,243.063-32.005
		c70.993-40.988,126.356-109.059,149.249-194.495c9.537-35.599-11.59-72.193-47.189-81.732c-35.6-9.538-72.193,11.589-81.731,47.188
		c-13.356,49.847-45.651,89.559-87.058,113.465C242.333,306.056,191.796,314.165,141.951,300.809z"/>
	<path style="fill:#987866;" d="M431.74,71.278c-6.164,23.007,3.143,45.491,20.789,50.219c17.645,4.729,36.947-10.089,43.113-33.096
		l-31.95-8.562L431.74,71.278z"/>
</g>
<path d="M482.009,125.121c10.744-7.207,19.32-19.304,23.293-34.132c0.686-2.562,0.327-5.292-0.999-7.588
	c-1.326-2.297-3.51-3.973-6.072-4.659L434.33,61.619c-2.561-0.687-5.291-0.327-7.588,0.999c-2.297,1.326-3.973,3.51-4.659,6.072
	c-3.975,14.835-2.423,29.589,3.252,41.162c-30.429,3.963-56.085,25.977-64.195,56.245c-12.229,45.636-41.491,83.775-82.398,107.392
	c-26.895,15.528-57.431,23.735-88.303,23.735c-15.415,0-30.858-2.044-45.9-6.074c-6.516-1.746-13.211-2.631-19.9-2.631
	c-24.345,0-46.615,11.565-60.825,30.06c-0.574-0.852-1.17-1.7-1.81-2.534c-7.583-9.879-19.052-17.273-32.293-20.821
	c-2.561-0.685-5.29-0.327-7.588,0.999c-2.297,1.326-3.973,3.51-4.659,6.072L0.341,366.198c-0.686,2.562-0.327,5.292,0.999,7.588
	c1.326,2.297,3.51,3.973,6.072,4.659c5.556,1.489,11.211,2.244,16.809,2.244c8.993,0,17.32-1.94,24.389-5.414
	c3.964,29.83,25.377,55.854,56.209,64.114c28.064,7.52,56.894,11.333,85.683,11.333c57.684,0,114.729-15.332,164.968-44.338
	c76.414-44.118,131.073-115.347,153.908-200.568C517.632,175.008,505.827,143.474,482.009,125.121z M439.895,83.815l42.415,11.365
	c-5.428,10.246-14.35,17.195-23.084,17.195c-1.392,0-2.772-0.181-4.107-0.538C445.368,109.225,439.396,97.398,439.895,83.815z
	 M24.221,360.689c-0.562,0-1.125-0.011-1.689-0.034l11.381-42.475c4.934,2.584,9.127,6.006,12.227,10.044
	c4.313,5.62,5.884,11.723,4.42,17.184C48.11,354.549,37.525,360.689,24.221,360.689z M490.059,200.64
	c-21.452,80.06-72.802,146.977-144.59,188.424c-47.204,27.252-100.79,41.659-154.968,41.659c-27.042,0-54.129-3.584-80.507-10.652
	c-30.216-8.096-48.213-39.267-40.117-69.484c6.637-24.768,29.154-42.067,54.761-42.067c4.942,0,9.897,0.656,14.725,1.95
	c16.729,4.482,33.913,6.755,51.076,6.755c34.378,0,68.371-9.134,98.303-26.415c45.533-26.288,78.105-68.741,91.716-119.537
	c6.636-24.768,29.153-42.067,54.759-42.067c4.94,0,9.893,0.655,14.72,1.948c0.002,0.001,0.003,0.001,0.005,0.001
	c0.001,0,0.003,0.001,0.005,0.001C480.16,139.256,498.154,170.424,490.059,200.64z"/>
<path d="M135.771,324.664c-0.005-0.001-0.118-0.032-0.123-0.033c-5.317-1.47-10.83,1.652-12.302,6.976
	c-1.471,5.323,1.652,10.831,6.976,12.302c0.013,0.003,0.084,0.023,0.112,0.031c0.89,0.246,1.785,0.363,2.666,0.363
	c4.38,0,8.4-2.9,9.629-7.326C144.208,331.654,141.092,326.142,135.771,324.664z"/>
<path d="M461.086,211.966c-5.171-1.948-10.937,0.664-12.884,5.832c-5.43,14.411-12.105,28.439-19.842,41.698
	c-2.784,4.77-1.173,10.894,3.597,13.677c1.585,0.925,3.319,1.364,5.03,1.364c3.44,0,6.788-1.776,8.646-4.961
	c8.299-14.222,15.46-29.27,21.283-44.727C468.864,219.681,466.254,213.913,461.086,211.966z"/>
<path d="M468.814,184.655c-5.324-1.418-10.802,1.793-12.238,7.108c-0.004,0.014-0.029,0.108-0.033,0.123
	c-1.415,5.33,1.761,10.759,7.087,12.187c0.86,0.23,1.725,0.341,2.575,0.341c4.417,0,8.471-2.966,9.678-7.429l0.051-0.19
	C477.325,191.466,474.135,186.07,468.814,184.655z"/>
<path d="M221.989,329.466c-4.323,0.654-8.721,1.181-13.069,1.564c-15.414,1.358-31.013,1.011-46.367-1.031
	c-5.475-0.726-10.503,3.12-11.231,8.594c-0.728,5.475,3.12,10.503,8.595,11.231c10.106,1.344,20.31,2.017,30.509,2.017
	c6.762,0,13.521-0.296,20.248-0.888c4.762-0.419,9.576-0.996,14.31-1.712c5.46-0.827,9.217-5.923,8.391-11.384
	C232.548,332.396,227.453,328.64,221.989,329.466z"/>
<g>
</g>
<g>
</g>
<g>
</g>
<g>
</g>
<g>
</g>
<g>
</g>
<g>
</g>
<g>
</g>
<g>
</g>
<g>
</g>
<g>
</g>
<g>
</g>
<g>
</g>
<g>
</g>
<g>
</g>
</svg>
