<?xml version="1.0" encoding="iso-8859-1"?>
<!-- Generator: Adobe Illustrator 19.0.0, SVG Export Plug-In . SVG Version: 6.00 Build 0)  -->
<svg version="1.1" id="Capa_1" xmlns="http://www.w3.org/2000/svg" xmlns:xlink="http://www.w3.org/1999/xlink" x="0px" y="0px"
	 viewBox="0 0 412.027 412.027" style="enable-background:new 0 0 412.027 412.027;" xml:space="preserve">
<path style="fill:#F48C0F;" d="M371.515,399.805c-10.4,0-20-2.4-29.6-5.6l-11.2-4.8l16.8-16.8c0-0.8,0-0.8,0-1.6h-0.8h-0.8
	l-17.6,17.6l-4.8-2.4c-26.4-12.8-51.2-27.2-74.4-44l-8-5.6l22.4-22.4c0-0.8,0-0.8,0-1.6c0-0.8-0.8-0.8-1.6,0l0,0l-22.4,22.4l-5.6-4
	c-38.4-28-67.2-53.6-75.2-60.8l-6.4-5.6l32.8-32.8c0.8,0,0.8-0.8,0-1.6l0,0c0-0.8-0.8-0.8-1.6,0l0,0l-32.8,32.8l-5.6-6.4
	c-24.8-26.4-28.8-67.2-9.6-98.4c0,0,0-0.8,0-1.6l-30.4-30.4h-0.8c-0.8,0-0.8,0-0.8,0.8c-8,25.6-36,40-61.6,31.2s-40-36-31.2-61.6
	c2.4-7.2,6.4-13.6,12-19.2v-0.8c-3.2-16,1.6-32.8,13.6-44.8c9.6-8.8,21.6-14.4,35.2-14.4c6.4,0,13.6,1.6,19.2,4l5.6,6.4l-4.8-6.4
	c8.8-6.4,18.4-9.6,28.8-9.6c12.8,0,25.6,4.8,35.2,13.6c19.2,19.2,19.2,50.4,0,69.6c-4.8,4.8-10.4,8.8-16.8,11.2
	c-0.8,0-0.8,0.8,0,1.6l0,0l24,24h0.8c12.8-7.2,26.4-11.2,41.6-11.2c21.6,0,41.6,8.8,56.8,24c8,8,20.8,22.4,33.6,37.6l4.8,5.6
	l-24.8,24.8c0,0.8,0,0.8,0,1.6c0,0.8,0.8,0.8,1.6,0l0,0l24-24l5.6,7.2c18.4,23.2,36,46.4,49.6,67.2c30.4,44.8,61.6,104,38.4,127.2
	C388.315,397.405,380.315,399.805,371.515,399.805z"/>
<g>
	<path style="fill:#FCA61D;" d="M156.315,137.405l-24-24c-2.4-2.4-3.2-4.8-2.4-8l0,0l-1.6,0.8c-4.8,1.6-7.2,7.2-5.6,12
		c0.8,1.6,0.8,2.4,2.4,3.2l24,24c3.2,3.2,7.2,3.2,11.2,1.6c11.2-6.4,24-10.4,36.8-10.4c19.2,0,37.6,8,51.2,21.6
		c7.2,7.2,19.2,20,32.8,36.8l-19.2,19.2c-3.2,3.2-3.2,9.6,0,12.8s9.6,3.2,12.8,0l7.2-7.2c15.2-20,15.2-37.6,12.8-35.2
		c-14.4-16.8-29.6-38.4-36-44.8c-13.6-14.4-38.4-19.2-57.6-19.2c-14.4,0.8-28,5.6-40,12.8
		C157.115,135.005,159.515,140.605,156.315,137.405z"/>
	<path style="fill:#FCA61D;" d="M80.315,35.805c3.2,1.6,6.4,0.8,8.8-0.8c16.8-12,39.2-10.4,53.6,4c14.4,14.4,16,37.6,3.2,54.4
		c1.6-0.8,2.4-2.4,4-3.2c16-16,16-42.4,0-58.4c-14.4-14.4-37.6-16-53.6-4c-2.4,1.6-6.4,2.4-8.8,0.8c-15.2-6.4-33.6-3.2-44.8,8.8
		c-1.6,1.6-2.4,2.4-3.2,4C49.915,31.805,65.915,30.205,80.315,35.805z"/>
	<polygon style="fill:#FCA61D;" points="184.315,243.805 164.315,263.805 164.315,263.805 	"/>
	<path style="fill:#FCA61D;" d="M365.115,274.205c-15.2-23.2-47.2-70.4-63.2-83.2c-17.6,11.2-8.8,17.6-8.8,17.6
		c16,20,33.6,43.2,49.6,67.2c36,55.2,51.2,96,42.4,113.6c0.8,4.8,4,8.8,5.6,7.2C404.315,381.405,405.115,334.205,365.115,274.205z"
		/>
	<polygon style="fill:#FCA61D;" points="249.915,313.405 238.715,324.605 238.715,324.605 	"/>
	<polygon style="fill:#FCA61D;" points="171.515,231.005 151.515,251.005 151.515,251.005 	"/>
</g>
<g>
	<path style="fill:#E56F0E;" d="M173.915,254.205c0,0-20,4-21.6,9.6c7.2,21.6,64,56,84.8,72c18.4-7.2,10.4-21.6,10.4-21.6
		C217.915,292.605,190.715,269.405,173.915,254.205z"/>
	<path style="fill:#E56F0E;" d="M381.115,381.405L381.115,381.405c-8.8,0-18.4-2.4-26.4-5.6l8-8c3.2-3.2,3.2-9.6,0-12.8
		s-9.6-3.2-12.8,0l-13.6,13.6c-25.6-12.8-49.6-27.2-72.8-44l-23.2,6.4c24.8,17.6,67.2,50.4,89.6,60.8l12,5.6
		c10.4,3.2,21.6,4.8,32.8,4.8c9.6-4.8,19.2-10.4,28-16c1.6-1.6-2.4-9.6-11.2-8C389.115,381.405,385.115,382.205,381.115,381.405z"/>
	<path style="fill:#E56F0E;" d="M66.715,143.805c-22.4,0-40.8-18.4-40.8-41.6c0-11.2,4-21.6,12-28.8c2.4-2.4,3.2-4.8,2.4-8
		c-2.4-11.2,0-22.4,7.2-32c-1.6,1.6-4,2.4-5.6,4.8c-9.6,9.6-14.4,24-11.2,37.6c0.8,3.2,0,5.6-2.4,8c-17.6,14.4-20,40.8-4.8,58.4
		s40.8,20,58.4,4.8c1.6-1.6,3.2-3.2,4.8-4.8s2.4-3.2,4-4.8C83.515,141.405,75.515,143.805,66.715,143.805z"/>
	<path style="fill:#E56F0E;" d="M152.315,153.405c2.4-3.2,1.6-8-1.6-11.2l-30.4-30.4c-3.2-3.2-9.6-3.2-12.8,0
		c-0.8,0.8-1.6,2.4-2.4,4c0,0.8-0.8,2.4-1.6,3.2h0.8c2.4,0,4.8,0.8,6.4,2.4l30.4,30.4c3.2,3.2-3.2,6.4-5.6,10.4
		c-22.4,33.6-4.8,97.6,14.4,104c16.8-11.2,10.4-24,10.4-24C138.715,217.405,134.715,181.405,152.315,153.405z"/>
	<path style="fill:#E56F0E;" d="M173.915,254.205c0,0-8.8-3.2-21.6,9.6c12,26.4,56,37.6,86.4,60"/>
</g>
<path style="fill:#84D10F;" d="M105.915,127.005C105.915,127.005,105.115,127.005,105.915,127.005c-1.6,0-1.6,0-1.6,0.8
	c-8.8,25.6-36.8,39.2-62.4,31.2s-39.2-36.8-31.2-62.4c2.4-7.2,6.4-13.6,12-19.2v-0.8c-3.2-16,1.6-32.8,13.6-44.8
	c9.6-8.8,21.6-14.4,35.2-14.4c6.4,0,13.6,1.6,19.2,4l5.6,6.4l-4.8-6.4c8.8-6.4,18.4-9.6,28.8-9.6c12.8,0,25.6,4.8,35.2,13.6
	c19.2,19.2,19.2,50.4,0,69.6c-4.8,4.8-10.4,8.8-16.8,11.2c-0.8,0-0.8,0.8,0,1.6l0,0l28,28l-25.6,25.6L105.915,127.005z"/>
<path style="fill:#A7E51F;" d="M80.315,35.805c3.2,1.6,6.4,0.8,8.8-0.8c16.8-12,39.2-10.4,53.6,4c14.4,14.4,16,38.4,3.2,54.4
	c-4,4.8,12,8.8,13.6,8c16-16,14.4-56.8-1.6-72.8c-14.4-14.4-47.2-20-62.4-8c-4,1.6-9.6,2.4-13.6,0.8c-15.2-6.4-32.8,1.6-44.8,13.6
	c-1.6,1.6-3.2,4,1.6,7.2C49.915,31.805,65.915,29.405,80.315,35.805z"/>
<g>
	<path style="fill:#50AC25;" d="M122.715,118.205c-3.2-3.2-9.6-3.2-12.8,0c0,0-0.8,0.8-0.8,1.6c-2.4,1.6-4.8,6.4-4,7.2l31.2,28
		l11.2-12L122.715,118.205z"/>
	<path style="fill:#50AC25;" d="M68.315,150.205c-22.4,0-40.8-18.4-40.8-41.6c0-11.2,4-21.6,12-28.8c2.4-2.4,3.2-4.8,2.4-8
		c-3.2-13.6,1.6-28,11.2-37.6c4-4,8-6.4,12.8-8.8c-6.4-7.2-22.4-0.8-28.8,5.6c-9.6,9.6-19.2,26.4-16,40c0.8,3.2-6.4,6.4-8,8.8
		c-16,16-12.8,51.2,3.2,67.2c12,9.6,25.6,15.2,40.8,17.6c5.6,0,17.6-6.4,16-16C71.515,150.205,69.915,150.205,68.315,150.205z"/>
</g>
<g>
	<path style="fill:#1C1211;" d="M330.715,298.205l-24.8,24.8c-3.2,3.2-3.2,9.6,0,12.8s9.6,3.2,12.8,0l24.8-24.8
		c3.2-3.2,3.2-9.6,0-12.8S334.715,295.005,330.715,298.205z"/>
	<path style="fill:#1C1211;" d="M195.515,144.605l-21.6,21.6c-3.2,3.2-3.2,9.6,0,12.8s9.6,3.2,12.8,0l0,0l21.6-21.6
		c3.2-3.2,3.2-9.6,0-12.8C204.315,141.405,198.715,141.405,195.515,144.605L195.515,144.605z"/>
	<path style="fill:#1C1211;" d="M364.315,258.205c-28.8-43.2-60.8-83.2-96-120.8c-16.8-16.8-40-26.4-64-26.4c-12,0-24,2.4-35.2,7.2
		l0,0l-1.6,0.8l-2.4,0.8l-11.2-10.4c26.4-19.2,32.8-56,14.4-82.4c-17.6-25.6-52-32.8-78.4-16.8c-31.2-10.4-64.8,6.4-75.2,37.6
		c-2.4,8.8-4,17.6-2.4,26.4c-20,25.6-15.2,63.2,11.2,83.2s63.2,14.4,83.2-11.2c0.8-0.8,0.8-1.6,1.6-2.4l16,16
		c-18.4,35.2-12,78.4,16,106.4l4.8,4.8l0,0c31.2,29.6,160,139.2,226.4,139.2l0,0c11.2,0.8,21.6-3.2,29.6-11.2
		C423.515,375.805,411.515,330.205,364.315,258.205z M111.515,121.405c-3.2-3.2-9.6-3.2-12.8,0c-0.8,0.8-1.6,2.4-2.4,4
		c-7.2,21.6-30.4,33.6-52,26.4c-6.4-2.4-12-5.6-16.8-10.4c-16-16-16-42.4,0-58.4l0,0c2.4-2.4,3.2-4.8,2.4-8
		c-3.2-13.6,1.6-28,11.2-37.6c12-12,29.6-15.2,45.6-8.8c3.2,1.6,6.4,0.8,8.8-0.8c16.8-12,39.2-10.4,53.6,4c16,16,16,42.4,0,58.4
		c-4,4-8.8,7.2-14.4,9.6c-4.8,1.6-7.2,7.2-5.6,12c0.8,1.6,0.8,2.4,2.4,3.2l16,16c-5.6,4-10.4,8.8-14.4,14.4L111.515,121.405z
		 M388.315,386.205c-4.8,4-10.4,6.4-16.8,5.6l0,0c-8.8,0-18.4-2.4-26.4-5.6l8-8c3.2-3.2,3.2-9.6,0-12.8s-9.6-3.2-12.8,0l0,0
		l-13.6,13.6c-25.6-12.8-50.4-27.2-72.8-44l16-16c3.2-3.2,3.2-9.6,0-12.8s-9.6-3.2-12.8,0l0,0l-17.6,17.6
		c-30.4-22.4-57.6-45.6-74.4-60.8l27.2-27.2c3.2-3.2,3.2-9.6,0-12.8c-3.2-3.2-9.6-3.2-12.8,0l0,0l-27.2,27.2
		c-22.4-24-25.6-60-8.8-88c8-12,20-22.4,32.8-28l0,0c8.8-4,18.4-5.6,28-5.6c19.2,0,37.6,7.2,51.2,20.8c7.2,7.2,19.2,20,32.8,36.8
		l-19.2,20.8c-3.2,3.2-3.2,9.6,0,12.8s9.6,3.2,12.8,0l18.4-18.4c16,20,33.6,44,49.6,67.2
		C389.115,328.605,403.515,371.005,388.315,386.205z"/>
</g>
<g>
</g>
<g>
</g>
<g>
</g>
<g>
</g>
<g>
</g>
<g>
</g>
<g>
</g>
<g>
</g>
<g>
</g>
<g>
</g>
<g>
</g>
<g>
</g>
<g>
</g>
<g>
</g>
<g>
</g>
</svg>
