<svg id="Filled" enable-background="new 0 0 512 512" viewBox="0 0 512 512" xmlns="http://www.w3.org/2000/svg"><path d="m300.2 408h19.8v35.8c0 24.4-19.8 44.2-44.2 44.2h-19.8v-35.8c0-24.4 19.8-44.2 44.2-44.2z" fill="#2e9163"/><path d="m256 488h-19.8c-24.4 0-44.2-19.8-44.2-44.2v-35.8h19.8c24.4 0 44.2 19.8 44.2 44.2z" fill="#35a872"/><path d="m256 96s-24-8-24-32 24-40 24-40 24 16 24 40-24 32-24 32z" fill="#ffd33a"/><path d="m220.4 102.3s-25.3.7-33.5-21.9 8.9-45.8 8.9-45.8 28 6.8 36.2 29.4-11.6 38.3-11.6 38.3z" fill="#e6be34"/><path d="m189.1 120.3s-23.5 9.3-39-9.1-7.3-46.1-7.3-46.1 28.7-3.1 44.2 15.3 2.1 39.9 2.1 39.9z" fill="#ffd33a"/><path d="m165.9 148s-18.9 16.8-39.7 4.8-22.6-40.8-22.6-40.8 25.9-12.8 46.6-.8 15.7 36.8 15.7 36.8z" fill="#e6be34"/><path d="m153.6 181.9s-12 22.2-35.7 18.1-35.2-30.6-35.2-30.6 19.9-20.9 43.6-16.7 27.3 29.2 27.3 29.2z" fill="#ffd33a"/><path d="m153.6 218.1s-3.7 25-27.3 29.2-43.6-16.7-43.6-16.7 11.6-26.4 35.2-30.6 35.7 18.1 35.7 18.1z" fill="#e6be34"/><path d="m165.9 252s5.1 24.8-15.7 36.8-46.6-.8-46.6-.8 1.9-28.8 22.6-40.8 39.7 4.8 39.7 4.8z" fill="#ffd33a"/><path d="m189.1 279.7s13.2 21.6-2.2 39.9-44.1 15.2-44.1 15.2-8.1-27.7 7.3-46.1 39-9 39-9z" fill="#e6be34"/><path d="m220.4 297.7s19.8 15.7 11.6 38.3-36.2 29.4-36.2 29.4-17.1-23.2-8.9-45.8 33.5-21.9 33.5-21.9z" fill="#ffd33a"/><path d="m256 304s24 8 24 32-24 40-24 40-24-16-24-40 24-32 24-32z" fill="#e6be34"/><path d="m291.6 297.7s25.3-.7 33.5 21.9-8.9 45.8-8.9 45.8-28-6.8-36.2-29.4 11.6-38.3 11.6-38.3z" fill="#ffd33a"/><path d="m322.9 279.7s23.5-9.3 39 9.1 7.3 46.1 7.3 46.1-28.7 3.2-44.1-15.2-2.2-40-2.2-40z" fill="#e6be34"/><path d="m346.1 252s18.9-16.8 39.7-4.8 22.6 40.8 22.6 40.8-25.9 12.8-46.6.8-15.7-36.8-15.7-36.8z" fill="#ffd33a"/><path d="m358.4 218.1s12-22.2 35.7-18.1 35.2 30.6 35.2 30.6-19.9 20.9-43.6 16.7-27.3-29.2-27.3-29.2z" fill="#e6be34"/><path d="m358.4 181.9s3.7-25 27.3-29.2 43.6 16.7 43.6 16.7-11.6 26.4-35.2 30.6-35.7-18.1-35.7-18.1z" fill="#ffd33a"/><path d="m346.1 148s-5.1-24.8 15.7-36.8 46.6.8 46.6.8-1.9 28.8-22.6 40.8-39.7-4.8-39.7-4.8z" fill="#e6be34"/><path d="m322.9 120.3s-13.2-21.6 2.2-39.9 44.1-15.2 44.1-15.2 8.1 27.7-7.3 46.1-39 9-39 9z" fill="#ffd33a"/><path d="m291.6 102.3s-19.8-15.7-11.6-38.3 36.2-29.4 36.2-29.4 17.1 23.2 8.9 45.8-33.5 21.9-33.5 21.9z" fill="#e6be34"/><circle cx="256" cy="200" fill="#bd620e" r="128"/><path d="m414.2 200c14.8-10.3 22.1-26.4 22.5-27.3 1.3-3 .7-6.4-1.5-8.7-.7-.7-13-13.4-30.5-18 10.4-14.8 11.7-32.4 11.8-33.4.2-3.2-1.5-6.3-4.4-7.7-.9-.4-16.8-8.1-34.8-6.5 4.7-17.4-.1-34.4-.4-35.4-.9-3.1-3.6-5.4-6.8-5.7-1-.1-18.5-1.9-34.9 5.8-1.5-18-11.9-32.3-12.5-33.1-1.9-2.6-5.2-3.8-8.3-3-1 .2-18.1 4.6-30.8 17.4-7.6-16.4-22.2-26.3-23-26.9-2.7-1.8-6.2-1.8-8.9 0-.8.6-15.4 10.5-23 26.9-12.8-12.8-29.9-17.1-30.8-17.4-3.1-.8-6.4.4-8.3 3-.6.8-10.9 15.1-12.5 33.1-16.4-7.7-33.9-5.9-34.9-5.8-3.2.4-5.9 2.6-6.8 5.7-.3 1-5.1 17.9-.4 35.4-18-1.6-33.9 6.1-34.8 6.5-2.9 1.4-4.6 4.5-4.4 7.7.1 1 1.4 18.6 11.8 33.4-17.5 4.6-29.8 17.3-30.5 18-2.2 2.3-2.8 5.8-1.5 8.7.4.9 7.6 17 22.5 27.3-14.8 10.3-22.1 26.4-22.5 27.3-1.3 3-.7 6.4 1.5 8.7.7.7 13 13.4 30.5 18-10.4 14.8-11.7 32.4-11.8 33.4-.2 3.2 1.5 6.3 4.4 7.7.8.4 13.9 6.7 29.7 6.7 1.7 0 3.3-.1 5-.2-4.7 17.4.1 34.4.4 35.4.9 3.1 3.6 5.4 6.8 5.7.3 0 2.5.3 5.8.3 6.7 0 18.2-.9 29.1-6 1.5 18 11.9 32.3 12.5 33.1 1.5 2.1 3.9 3.3 6.4 3.3.6 0 1.3-.1 1.9-.2 1-.2 18.1-4.6 30.8-17.4 5.4 11.7 14.4 20.2 19.4 24.2v34.6c-9.4-9-22.1-14.6-36.2-14.6h-19.8c-4.4 0-8 3.6-8 8v35.8c0 28.8 23.4 52.2 52.2 52.2h39.7c28.8 0 52.2-23.4 52.2-52.2v-35.8c0-4.4-3.6-8-8-8h-19.8c-14 0-26.8 5.6-36.2 14.6v-34.6c5-4 14-12.4 19.5-24.2 12.8 12.8 29.9 17.1 30.8 17.4.6.2 1.3.2 1.9.2 2.5 0 4.9-1.2 6.4-3.3.6-.8 10.9-15.1 12.5-33.1 10.9 5.1 22.4 6 29.1 6 3.3 0 5.5-.2 5.8-.3 3.2-.4 5.9-2.6 6.8-5.7.3-1 5.1-17.9.4-35.4 1.7.2 3.4.2 5 .2 15.8 0 28.9-6.3 29.7-6.7 2.9-1.4 4.6-4.5 4.4-7.7-.1-1-1.4-18.6-11.8-33.4 17.5-4.6 29.8-17.3 30.5-18 2.2-2.3 2.8-5.8 1.5-8.7-.3-.9-7.6-17-22.4-27.3zm-158.2 120c-66.2 0-120-53.8-120-120s53.8-120 120-120 120 53.8 120 120-53.8 120-120 120zm136.8-127.9s-.7.1-1 .1c-.6-10.9-2.5-21.4-5.5-31.4.2-.1.9-.2 1-.2 13.3-2.3 25.8 5.6 32 10.6-4.2 6.9-13.2 18.5-26.5 20.9zm6.8-75c-1.6 7.9-6.1 22-17.7 28.7 0 0-.6.3-.9.5-4.3-9.9-9.6-19.1-16-27.6.3-.2.9-.6.9-.6 11.7-6.7 26.1-3.5 33.7-1zm-43.9-11.1s-.5.6-.7.8c-7.3-7.8-15.5-14.7-24.4-20.5.2-.2.6-.8.7-.8 8.7-10.3 23.3-12.2 31.3-12.5 1.1 8 1.7 22.7-6.9 33zm-43-61.8c3.8 7.1 9.5 20.7 4.9 33.4 0 0-.3.7-.4 1-9.4-4.8-19.5-8.5-30-11 .1-.3.3-.9.3-1 4.7-12.7 17.7-19.5 25.2-22.4zm-72.7 19.7c0-13.5 10-24.4 16-29.7 6 5.3 16 16.2 16 29.7v1.1c-5.2-.6-10.6-.9-16-.9s-10.7.3-16 .9c0-.4 0-1.1 0-1.1zm-40.7-19.7c7.5 2.9 20.5 9.7 25.2 22.4 0 .1.2.7.3 1-10.5 2.5-20.6 6.2-30 11-.1-.3-.4-.9-.4-1-4.6-12.8 1.1-26.4 4.9-33.4zm-49.9 28.8c8 .2 22.7 2.2 31.3 12.4 0 .1.5.6.7.8-8.9 5.9-17.1 12.8-24.4 20.5-.2-.2-.7-.8-.7-.8-8.7-10.2-8-24.9-6.9-32.9zm-3.2 45.1s.6.4.9.6c-6.4 8.5-11.7 17.8-16 27.6-.3-.2-.9-.5-.9-.5-11.7-6.8-16.1-20.8-17.7-28.7 7.6-2.5 22-5.7 33.7 1zm-21.4 42.5c.1 0 .8.2 1 .2-3 10-4.9 20.6-5.5 31.4-.3 0-1-.1-1-.1-13.3-2.4-22.3-14.1-26.5-20.9 6.2-5 18.7-12.9 32-10.6zm-5.6 47.3s.7-.1 1-.1c.6 10.9 2.5 21.4 5.5 31.4-.3.1-.9.2-1 .2-13.3 2.3-25.8-5.6-32.1-10.6 4.3-6.9 13.3-18.5 26.6-20.9zm-6.8 75c1.6-7.9 6-21.9 17.7-28.7 0 0 .6-.3.9-.5 4.3 9.9 9.6 19.1 16 27.6-.3.2-.9.6-.9.6-11.7 6.7-26.1 3.5-33.7 1zm43.9 11.1s.5-.5.7-.8c7.3 7.8 15.5 14.7 24.4 20.5-.2.2-.6.8-.7.8-8.7 10.3-23.3 12.2-31.3 12.5-1.1-7.9-1.8-22.7 6.9-33zm43 61.8c-3.8-7.1-9.5-20.7-4.9-33.4 0 0 .3-.7.4-1 9.4 4.8 19.5 8.5 30 11-.1.3-.3.9-.3 1-4.7 12.7-17.7 19.5-25.2 22.4zm.7 88v-27.8h11.8c19.9 0 36.2 16.2 36.2 36.2v13.7l-25.8-31c-1.5-1.8-3.7-2.9-6.1-2.9-4.4 0-8 3.6-8 8 0 1.9.7 3.7 1.9 5.1l29.1 34.9h-2.8c-20.1 0-36.3-16.2-36.3-36.2zm100.2-27.8h11.8v27.8c0 19.9-16.2 36.2-36.2 36.2h-2.8l29.1-34.9c1.2-1.4 1.9-3.2 1.9-5.1 0-4.4-3.6-8-8-8-2.5 0-4.7 1.1-6.1 2.9l-25.8 31v-13.7c-.1-20 16.1-36.2 36.1-36.2zm-28.2-79.9c0 13.5-10 24.4-16 29.7-6-5.3-16-16.2-16-29.7v-.1c0-.3 0-.6 0-.9 5.2.6 10.6.9 16 .9s10.7-.3 16-.9zm40.7 19.7c-7.5-2.9-20.5-9.7-25.2-22.4 0-.1-.2-.7-.3-1 10.5-2.5 20.6-6.2 30-11 .1.3.4 1 .4 1 4.5 12.8-1.1 26.4-4.9 33.4zm49.9-28.8c-8-.2-22.7-2.2-31.3-12.4 0-.1-.5-.6-.7-.8 8.9-5.9 17.1-12.8 24.4-20.5.2.2.7.8.7.8 8.7 10.2 8 24.9 6.9 32.9zm3.3-45.1s-.6-.4-.9-.6c6.4-8.5 11.7-17.8 16-27.6.3.1.9.5.9.5 11.7 6.8 16.1 20.8 17.7 28.7-7.7 2.5-22.1 5.7-33.7-1zm21.3-42.5c-.1 0-.8-.2-1-.2 3-10 4.9-20.6 5.5-31.4.3 0 1 .1 1 .1 13.3 2.4 22.3 14.1 26.5 20.9-6.2 5-18.7 12.9-32 10.6zm-123.2-127.4c0 4.4-3.6 8-8 8s-8-3.6-8-8 3.6-8 8-8 8 3.6 8 8zm0 48c0 4.4-3.6 8-8 8s-8-3.6-8-8 3.6-8 8-8 8 3.6 8 8zm0 128c0 4.4-3.6 8-8 8s-8-3.6-8-8 3.6-8 8-8 8 3.6 8 8zm0-48c0 4.4-3.6 8-8 8s-8-3.6-8-8 3.6-8 8-8 8 3.6 8 8zm40-40c0 4.4-3.6 8-8 8s-8-3.6-8-8 3.6-8 8-8 8 3.6 8 8zm-80 0c0 4.4-3.6 8-8 8s-8-3.6-8-8 3.6-8 8-8 8 3.6 8 8zm93.7-61.7c3.1 3.1 3.1 8.2 0 11.3s-8.2 3.1-11.3 0-3.1-8.2 0-11.3 8.1-3.1 11.3 0zm-112 112c3.1 3.1 3.1 8.2 0 11.3s-8.2 3.1-11.3 0-3.1-8.2 0-11.3 8.1-3.1 11.3 0zm112 0c3.1 3.1 3.1 8.2 0 11.3s-8.2 3.1-11.3 0-3.1-8.2 0-11.3 8.1-3.1 11.3 0zm-123.4-100.6c-3.1-3.1-3.1-8.2 0-11.3s8.2-3.1 11.3 0 3.1 8.2 0 11.3-8.1 3.1-11.3 0zm157.7 50.3c0 4.4-3.6 8-8 8s-8-3.6-8-8 3.6-8 8-8 8 3.6 8 8zm-176 0c0 4.4-3.6 8-8 8s-8-3.6-8-8 3.6-8 8-8 8 3.6 8 8z"/></svg>